<svg width="118" height="46" viewBox="0 0 118 46" fill="none" xmlns="http://www.w3.org/2000/svg">
<path fill-rule="evenodd" clip-rule="evenodd" d="M22.9972 0C23.7154 0 24.4259 0.0318849 25.1273 0.102015L25.1268 0.102525C25.3012 0.116215 25.4765 0.134646 25.648 0.155062L26.1597 0.218822L26.1688 0.219842C26.5174 0.268106 26.8604 0.327546 27.2028 0.396838L27.2033 0.396327C31.0412 1.0995 34.5417 2.7478 37.4619 5.11502C40.729 7.75981 43.2565 11.2845 44.6794 15.3262L44.7967 15.6613L44.9095 16.001L45.1074 16.6361L45.1104 16.6483C45.1543 16.8064 45.2201 17.0208 45.2696 17.2226C45.3449 17.5131 45.4149 17.8076 45.4787 18.0949L45.4792 18.0959C45.5146 18.2565 45.546 18.4189 45.5756 18.5779L45.6608 19.04L45.6618 19.0451L45.6623 19.0502C45.7148 19.3596 45.7685 19.6871 45.8118 20.0117L45.8174 20.0525V20.0587L45.8189 20.0724C45.85 20.3519 45.8813 20.6448 45.9077 20.9288L45.9301 21.1517C45.9368 21.224 45.9431 21.2963 45.9485 21.3685L45.9939 21.3537L46.0107 22.1913C46.0159 22.4512 46.0209 22.7135 46.0209 22.987C46.0209 23.2759 46.0102 23.5677 46 23.8383V23.9449L45.9985 23.9674C45.9816 24.1945 45.9587 24.5672 45.9408 24.8039C45.6938 28.0625 44.7597 31.1285 43.2946 33.8602L43.2941 33.8613C41.6896 36.8393 39.4572 39.4206 36.7636 41.4328L36.7626 41.4333C33.9942 43.4934 30.7474 44.9539 27.2206 45.6088L27.2201 45.6083C26.8805 45.6719 26.5364 45.7314 26.1846 45.7802L26.1755 45.7812C25.8376 45.8228 25.4883 45.8662 25.138 45.8985C24.4429 45.9626 23.7342 46 23.013 46C22.7852 46 22.5532 45.995 22.3397 45.9898C22.1555 45.9892 21.979 45.9778 21.8205 45.9679C21.6261 45.9622 21.4362 45.9506 21.2344 45.9291C20.9478 45.9035 20.6358 45.877 20.328 45.8393C19.8909 45.7908 19.4497 45.7267 19.0207 45.6516L19.0135 45.6501H18.9977L18.9421 45.6399C18.5399 45.5658 18.1355 45.4852 17.7332 45.3874C14.3543 44.5929 11.264 43.0638 8.64575 40.9661L8.19791 40.5988C3.61712 36.7467 0.563827 31.1341 0.0800816 24.81L0.0795715 24.8049L0.0219332 23.9694L0.020913 23.9485V23.847C0.00550445 23.563 1.35556e-06 23.2724 0 22.9921C1.06838e-06 22.7186 0.00500206 22.4564 0.0102015 22.1964L0.0107116 22.176L0.0127518 22.1551C0.0218055 22.0509 0.0263516 21.9439 0.0316246 21.8174L0.0321347 21.8133V21.8087C0.047645 21.5295 0.0639126 21.2305 0.0974241 20.9288C0.123836 20.6448 0.155122 20.3519 0.186177 20.0724L0.187707 20.0592V20.053L0.193318 20.0133L0.193828 20.0071L0.194848 20.0051C0.236861 19.6855 0.284547 19.3666 0.34328 19.0502C0.396596 18.7357 0.455698 18.4168 0.526396 18.0959C0.577457 17.838 0.643483 17.5846 0.704922 17.3542C0.798691 16.9554 0.917642 16.5662 1.03035 16.2025L1.03239 16.1964L1.03443 16.1897C1.0916 16.0183 1.13089 15.9165 1.17113 15.7858C1.21392 15.6416 1.26192 15.4853 1.31089 15.3384L1.45167 14.9171H1.47054C2.83143 11.2967 5.08357 8.10634 7.95358 5.62408C10.7068 3.23069 14.0397 1.48673 17.7205 0.612089L17.7266 0.610559C18.1218 0.520977 18.5181 0.435412 18.9268 0.360112L18.9819 0.349911H18.9977L19.0054 0.348381C19.4336 0.27344 19.8699 0.208829 20.3132 0.160163C20.6216 0.117082 20.9443 0.0940677 21.2201 0.0698801H21.2242C21.4006 0.0555733 21.5886 0.0403624 21.7873 0.0336649C21.9782 0.0158379 22.1597 0.0102065 22.3392 0.0102015C22.5481 0.00511295 22.7696 5.69637e-06 22.9972 0ZM9.86177 40.3509C12.1632 42.0981 14.8259 43.3927 17.7205 44.1158L18.0199 44.1882L18.0245 44.1897C18.0679 44.2003 18.1119 44.2097 18.1556 44.2198V35.2869L17.7067 35.115C16.5939 34.688 15.5467 34.1414 14.5784 33.492L9.86177 40.3509ZM31.0472 33.7858C30.2064 34.3081 29.3101 34.7546 28.3667 35.115L27.871 35.3048V44.2147C30.674 43.5735 33.2736 42.3913 35.5537 40.7865L31.0472 33.7858ZM35.6052 29.4568C34.6334 30.8547 33.4396 32.0827 32.0678 33.0936L36.5427 40.0459C38.7187 38.3172 40.5523 36.186 41.9393 33.7603L35.6052 29.4568ZM3.83729 33.3247C5.12546 35.7115 6.84718 37.8307 8.89875 39.5756L13.5817 32.7656C12.292 31.7441 11.1726 30.5245 10.2632 29.1492L3.83729 33.3247ZM9.65978 25.1441C11.0344 29.2 14.1619 32.4362 18.1454 33.9607V25.1441H9.65978ZM27.9281 33.9607C31.9116 32.4362 35.039 29.1947 36.4137 25.1441H27.9281V33.9607ZM37.7138 25.1441L37.5807 25.5358C37.2383 26.5488 36.7963 27.5123 36.2683 28.4172L42.5223 32.6656C43.666 30.3615 44.4163 27.8254 44.6738 25.1441H37.7138ZM1.34711 25.1441C1.58861 27.6499 2.25701 30.0321 3.27927 32.2173L9.62459 28.0949C9.1764 27.2846 8.79592 26.4295 8.49273 25.5358L8.3596 25.1441H1.34711ZM34.2382 9.4129C35.7183 11.0069 36.8666 12.9119 37.5858 15.0319L37.7205 15.4287H43.4058C42.1076 11.913 39.9198 8.82247 37.1166 6.43152L34.2382 9.4129ZM8.3494 6.92119C5.80807 9.23381 3.81445 12.1468 2.59526 15.4287H8.35807L8.49273 15.0319C9.14141 13.1131 10.1417 11.3686 11.4231 9.87248L8.3494 6.92119ZM18.1454 6.60699C14.1602 8.13212 11.0315 11.3757 9.65774 15.4287H18.1454V6.60699ZM27.9281 15.4287H36.4157C35.042 11.3704 31.9133 8.13212 27.9281 6.60699V15.4287ZM17.9995 1.8128C14.7483 2.58631 11.785 4.07564 9.28692 6.11222L12.2622 8.96914C13.7892 7.4491 15.6346 6.24432 17.7067 5.45269L18.1454 5.28437V1.78067C18.097 1.79149 18.0482 1.80177 17.9995 1.8128ZM27.871 5.26039L28.3724 5.45269C30.2435 6.17065 31.9298 7.22488 33.3644 8.54323L36.153 5.65417C33.7344 3.81561 30.9265 2.48356 27.871 1.79087V5.26039Z" fill="#343E36"/>
<path d="M114.768 39.912C114.432 39.912 114.11 39.8793 113.802 39.814C113.503 39.7486 113.242 39.674 113.018 39.59C112.794 39.506 112.64 39.4313 112.556 39.366L112.71 37.658H113.298L113.494 38.764C113.615 38.848 113.788 38.932 114.012 39.016C114.245 39.1 114.52 39.142 114.838 39.142C115.416 39.142 115.799 39.03 115.986 38.806C116.182 38.582 116.28 38.2926 116.28 37.938C116.28 37.658 116.205 37.4433 116.056 37.294C115.906 37.1353 115.71 37.014 115.468 36.93C115.225 36.8366 114.968 36.7526 114.698 36.678C114.436 36.6126 114.184 36.538 113.942 36.454C113.699 36.37 113.475 36.2626 113.27 36.132C113.064 35.992 112.901 35.81 112.78 35.586C112.658 35.3526 112.598 35.0586 112.598 34.704C112.598 34.256 112.71 33.8873 112.934 33.598C113.158 33.3086 113.466 33.094 113.858 32.954C114.25 32.8046 114.679 32.73 115.146 32.73C115.444 32.73 115.729 32.7533 116 32.8C116.27 32.8373 116.508 32.8886 116.714 32.954C116.919 33.01 117.064 33.0613 117.148 33.108L116.952 34.858H116.378L116.182 33.738C116.126 33.71 115.981 33.668 115.748 33.612C115.524 33.556 115.286 33.528 115.034 33.528C114.511 33.528 114.147 33.612 113.942 33.78C113.746 33.9386 113.648 34.1953 113.648 34.55C113.648 34.7646 113.713 34.9373 113.844 35.068C113.984 35.1986 114.166 35.306 114.39 35.39C114.623 35.474 114.875 35.5533 115.146 35.628C115.398 35.7026 115.654 35.7913 115.916 35.894C116.177 35.9873 116.415 36.1086 116.63 36.258C116.854 36.4073 117.031 36.6033 117.162 36.846C117.292 37.0793 117.358 37.378 117.358 37.742C117.358 38.2833 117.236 38.7126 116.994 39.03C116.751 39.3473 116.429 39.576 116.028 39.716C115.636 39.8466 115.216 39.912 114.768 39.912Z" fill="#343E36"/>
<path d="M108.927 39.912C108.237 39.912 107.667 39.7673 107.219 39.478C106.771 39.1793 106.44 38.7733 106.225 38.26C106.011 37.7466 105.903 37.168 105.903 36.524C105.903 35.7586 106.034 35.0913 106.295 34.522C106.566 33.9526 106.935 33.514 107.401 33.206C107.877 32.8886 108.423 32.73 109.039 32.73C109.45 32.73 109.8 32.8 110.089 32.94C110.379 33.08 110.612 33.2713 110.789 33.514C110.976 33.7566 111.111 34.032 111.195 34.34C111.289 34.6386 111.335 34.9513 111.335 35.278C111.335 35.782 111.289 36.118 111.195 36.286C111.102 36.4446 110.925 36.524 110.663 36.524H107.149C107.149 36.9626 107.219 37.364 107.359 37.728C107.499 38.092 107.728 38.386 108.045 38.61C108.372 38.8246 108.806 38.932 109.347 38.932C109.861 38.932 110.257 38.8806 110.537 38.778C110.827 38.6753 110.99 38.6146 111.027 38.596L111.223 38.988C111.195 39.016 111.083 39.1046 110.887 39.254C110.701 39.4033 110.439 39.5526 110.103 39.702C109.777 39.842 109.385 39.912 108.927 39.912ZM107.163 35.88L110.159 35.768C110.187 35.6 110.201 35.4133 110.201 35.208C110.201 34.676 110.108 34.2653 109.921 33.976C109.735 33.6866 109.375 33.542 108.843 33.542C108.461 33.542 108.143 33.6353 107.891 33.822C107.649 33.9993 107.467 34.2653 107.345 34.62C107.233 34.9653 107.173 35.3853 107.163 35.88Z" fill="#343E36"/>
<path d="M101.843 39.786V39.212L102.977 39.016V34.032L101.857 33.836V33.262L103.789 32.87L104.125 32.996V39.016L105.217 39.212V39.786H101.843ZM103.397 31.834C103.164 31.834 102.972 31.7547 102.823 31.596C102.683 31.428 102.613 31.218 102.613 30.966C102.613 30.7233 102.692 30.5087 102.851 30.322C103.01 30.1353 103.215 30.042 103.467 30.042C103.7 30.042 103.887 30.1167 104.027 30.266C104.176 30.406 104.251 30.6113 104.251 30.882C104.251 31.134 104.176 31.358 104.027 31.554C103.878 31.7407 103.668 31.834 103.397 31.834Z" fill="#343E36"/>
<path d="M96.9928 39.786V39.212L97.9448 39.016V33.962L96.8528 33.766V33.192L98.8688 32.8L99.1068 33.584C99.1535 33.5373 99.2608 33.4486 99.4288 33.318C99.6061 33.178 99.8068 33.0473 100.031 32.926C100.264 32.7953 100.479 32.73 100.675 32.73C100.871 32.73 101.02 32.7953 101.123 32.926C101.235 33.0473 101.291 33.2106 101.291 33.416C101.291 33.5746 101.253 33.7146 101.179 33.836C101.113 33.9573 101.011 34.0646 100.871 34.158L100.283 34.004C100.171 33.976 100.073 33.9573 99.9888 33.948C99.9048 33.9293 99.8115 33.92 99.7088 33.92C99.6061 33.92 99.4988 33.9293 99.3868 33.948C99.2748 33.9666 99.1768 33.9946 99.0928 34.032V39.002L100.381 39.184V39.786H96.9928Z" fill="#343E36"/>
<path d="M93.5463 39.912C92.8557 39.912 92.2863 39.7673 91.8383 39.478C91.3903 39.1793 91.059 38.7733 90.8443 38.26C90.6297 37.7466 90.5223 37.168 90.5223 36.524C90.5223 35.7586 90.653 35.0913 90.9143 34.522C91.185 33.9526 91.5537 33.514 92.0203 33.206C92.4963 32.8886 93.0423 32.73 93.6583 32.73C94.069 32.73 94.419 32.8 94.7083 32.94C94.9977 33.08 95.231 33.2713 95.4083 33.514C95.595 33.7566 95.7303 34.032 95.8143 34.34C95.9077 34.6386 95.9543 34.9513 95.9543 35.278C95.9543 35.782 95.9077 36.118 95.8143 36.286C95.721 36.4446 95.5437 36.524 95.2823 36.524H91.7683C91.7683 36.9626 91.8383 37.364 91.9783 37.728C92.1183 38.092 92.347 38.386 92.6643 38.61C92.991 38.8246 93.425 38.932 93.9663 38.932C94.4797 38.932 94.8763 38.8806 95.1563 38.778C95.4457 38.6753 95.609 38.6146 95.6463 38.596L95.8423 38.988C95.8143 39.016 95.7023 39.1046 95.5063 39.254C95.3197 39.4033 95.0583 39.5526 94.7223 39.702C94.3957 39.842 94.0037 39.912 93.5463 39.912ZM91.7823 35.88L94.7783 35.768C94.8063 35.6 94.8203 35.4133 94.8203 35.208C94.8203 34.676 94.727 34.2653 94.5403 33.976C94.3537 33.6866 93.9943 33.542 93.4623 33.542C93.0797 33.542 92.7623 33.6353 92.5103 33.822C92.2677 33.9993 92.0857 34.2653 91.9643 34.62C91.8523 34.9653 91.7917 35.3853 91.7823 35.88Z" fill="#343E36"/>
<path d="M88.2279 39.8418C87.8266 39.8418 87.5139 39.7764 87.2899 39.6458C87.0752 39.5151 86.9259 39.3331 86.8419 39.0998C86.7579 38.8571 86.7159 38.5864 86.7159 38.2878V33.6118H85.6239V33.0098L86.7159 32.7158L87.0519 31.2598H87.8639V32.8558H89.8379V33.2478L89.6419 33.6118H87.8639V38.1898C87.8639 38.4791 87.9199 38.6704 88.0319 38.7638C88.1532 38.8478 88.3306 38.8898 88.5639 38.8898C88.8252 38.8898 89.0632 38.8664 89.2779 38.8198C89.4926 38.7638 89.6279 38.7264 89.6839 38.7078L89.8239 39.1558C89.5999 39.3611 89.3386 39.5291 89.0399 39.6598C88.7412 39.7811 88.4706 39.8418 88.2279 39.8418Z" fill="#343E36"/>
<path d="M82.4995 39.912C81.8088 39.912 81.2395 39.7673 80.7915 39.478C80.3435 39.1793 80.0121 38.7733 79.7975 38.26C79.5828 37.7466 79.4755 37.168 79.4755 36.524C79.4755 35.7586 79.6061 35.0913 79.8675 34.522C80.1381 33.9526 80.5068 33.514 80.9735 33.206C81.4495 32.8886 81.9955 32.73 82.6115 32.73C83.0221 32.73 83.3721 32.8 83.6615 32.94C83.9508 33.08 84.1841 33.2713 84.3615 33.514C84.5481 33.7566 84.6835 34.032 84.7675 34.34C84.8608 34.6386 84.9075 34.9513 84.9075 35.278C84.9075 35.782 84.8608 36.118 84.7675 36.286C84.6741 36.4446 84.4968 36.524 84.2355 36.524H80.7215C80.7215 36.9626 80.7915 37.364 80.9315 37.728C81.0715 38.092 81.3001 38.386 81.6175 38.61C81.9441 38.8246 82.3781 38.932 82.9195 38.932C83.4328 38.932 83.8295 38.8806 84.1095 38.778C84.3988 38.6753 84.5621 38.6146 84.5995 38.596L84.7955 38.988C84.7675 39.016 84.6555 39.1046 84.4595 39.254C84.2728 39.4033 84.0115 39.5526 83.6755 39.702C83.3488 39.842 82.9568 39.912 82.4995 39.912ZM80.7355 35.88L83.7315 35.768C83.7595 35.6 83.7735 35.4133 83.7735 35.208C83.7735 34.676 83.6801 34.2653 83.4935 33.976C83.3068 33.6866 82.9475 33.542 82.4155 33.542C82.0328 33.542 81.7155 33.6353 81.4635 33.822C81.2208 33.9993 81.0388 34.2653 80.9175 34.62C80.8055 34.9653 80.7448 35.3853 80.7355 35.88Z" fill="#343E36"/>
<path d="M67.6223 39.786V39.212L68.7423 39.016V34.018L67.6223 33.794V33.262L69.5123 32.87L69.8763 33.402C70.203 33.2153 70.5623 33.0613 70.9543 32.94C71.3463 32.8093 71.6916 32.744 71.9903 32.744C72.3916 32.744 72.7136 32.814 72.9563 32.954C73.2083 33.0846 73.4043 33.262 73.5443 33.486C73.7403 33.374 73.9783 33.262 74.2583 33.15C74.5383 33.038 74.8323 32.94 75.1403 32.856C75.4483 32.772 75.7376 32.73 76.0083 32.73C76.531 32.73 76.9463 32.8933 77.2543 33.22C77.5716 33.5373 77.7303 33.976 77.7303 34.536V39.016L78.8503 39.212V39.786H75.5043V39.212L76.5823 39.016V34.844C76.5823 34.4333 76.475 34.144 76.2603 33.976C76.055 33.7986 75.705 33.71 75.2103 33.71C75.033 33.71 74.8043 33.724 74.5243 33.752C74.2443 33.78 73.997 33.8266 73.7823 33.892C73.7823 33.9386 73.7823 33.9946 73.7823 34.06C73.7916 34.1253 73.7963 34.186 73.7963 34.242V39.016L74.6503 39.226V39.786H71.7523V39.226L72.6483 39.016V34.844C72.6483 34.424 72.5456 34.13 72.3403 33.962C72.135 33.794 71.785 33.71 71.2903 33.71C71.1223 33.71 70.9076 33.724 70.6463 33.752C70.385 33.7706 70.133 33.8173 69.8903 33.892V39.016L70.9823 39.212V39.786H67.6223Z" fill="#343E36"/>
<path d="M64.3159 39.912C63.6252 39.912 63.0559 39.7673 62.6079 39.478C62.1599 39.1793 61.8285 38.7733 61.6139 38.26C61.3992 37.7466 61.2919 37.168 61.2919 36.524C61.2919 35.7586 61.4225 35.0913 61.6839 34.522C61.9545 33.9526 62.3232 33.514 62.7899 33.206C63.2659 32.8886 63.8119 32.73 64.4279 32.73C64.8385 32.73 65.1885 32.8 65.4779 32.94C65.7672 33.08 66.0005 33.2713 66.1779 33.514C66.3645 33.7566 66.4999 34.032 66.5839 34.34C66.6772 34.6386 66.7239 34.9513 66.7239 35.278C66.7239 35.782 66.6772 36.118 66.5839 36.286C66.4905 36.4446 66.3132 36.524 66.0519 36.524H62.5379C62.5379 36.9626 62.6079 37.364 62.7479 37.728C62.8879 38.092 63.1165 38.386 63.4339 38.61C63.7605 38.8246 64.1945 38.932 64.7359 38.932C65.2492 38.932 65.6459 38.8806 65.9259 38.778C66.2152 38.6753 66.3785 38.6146 66.4159 38.596L66.6119 38.988C66.5839 39.016 66.4719 39.1046 66.2759 39.254C66.0892 39.4033 65.8279 39.5526 65.4919 39.702C65.1652 39.842 64.7732 39.912 64.3159 39.912ZM62.5519 35.88L65.5479 35.768C65.5759 35.6 65.5899 35.4133 65.5899 35.208C65.5899 34.676 65.4965 34.2653 65.3099 33.976C65.1232 33.6866 64.7639 33.542 64.2319 33.542C63.8492 33.542 63.5319 33.6353 63.2799 33.822C63.0372 33.9993 62.8552 34.2653 62.7339 34.62C62.6219 34.9653 62.5612 35.3853 62.5519 35.88Z" fill="#343E36"/>
<path d="M57.13 39.9399C55.7207 39.9399 54.68 39.5479 54.008 38.7639C53.336 37.9799 53 36.8459 53 35.3619C53 34.7272 53.098 34.1206 53.294 33.5419C53.4993 32.9632 53.7933 32.4499 54.176 32.0019C54.5587 31.5539 55.0253 31.1992 55.576 30.9379C56.1267 30.6766 56.752 30.5459 57.452 30.5459C57.9653 30.5459 58.4553 30.5832 58.922 30.6579C59.398 30.7232 59.7947 30.8212 60.112 30.9519V33.1499H59.412L59.118 31.6099C58.894 31.5446 58.614 31.4932 58.278 31.4559C57.9513 31.4092 57.6247 31.3859 57.298 31.3859C56.654 31.3859 56.1173 31.5352 55.688 31.8339C55.2587 32.1232 54.9367 32.5619 54.722 33.1499C54.5073 33.7379 54.4 34.4799 54.4 35.3759C54.4 36.0199 54.4653 36.5799 54.596 37.0559C54.7267 37.5319 54.9133 37.9286 55.156 38.2459C55.3987 38.5539 55.6973 38.7826 56.052 38.9319C56.416 39.0812 56.8313 39.1559 57.298 39.1559C57.6713 39.1559 57.984 39.1279 58.236 39.0719C58.4973 39.0066 58.7027 38.9319 58.852 38.8479C59.0107 38.7639 59.1273 38.6986 59.202 38.6519L59.482 37.2099H60.168V39.3379C59.9907 39.4126 59.7713 39.5012 59.51 39.6039C59.2487 39.6972 58.9267 39.7766 58.544 39.8419C58.1613 39.9072 57.69 39.9399 57.13 39.9399Z" fill="#343E36"/>
<path d="M99.0828 27.912C98.5041 27.912 97.9861 27.786 97.5288 27.534C97.0808 27.282 96.7261 26.904 96.4648 26.4C96.2128 25.896 96.0868 25.266 96.0868 24.51C96.0868 24.0153 96.1521 23.5393 96.2828 23.082C96.4228 22.6246 96.6235 22.2186 96.8848 21.864C97.1555 21.5093 97.4868 21.234 97.8788 21.038C98.2801 20.8326 98.7375 20.73 99.2508 20.73C99.7175 20.73 100.109 20.814 100.427 20.982C100.744 21.1406 100.982 21.3553 101.141 21.626C101.309 21.8873 101.393 22.172 101.393 22.48C101.393 22.592 101.365 22.6993 101.309 22.802C101.253 22.9046 101.173 22.984 101.071 23.04C100.968 23.096 100.842 23.124 100.693 23.124C100.59 23.124 100.501 23.1146 100.427 23.096C100.361 23.068 100.315 23.0446 100.287 23.026L100.077 21.724C100.039 21.696 99.9368 21.6586 99.7688 21.612C99.6101 21.5653 99.4141 21.542 99.1808 21.542C98.7048 21.542 98.3315 21.6446 98.0608 21.85C97.7995 22.046 97.6128 22.3493 97.5008 22.76C97.3981 23.1706 97.3468 23.698 97.3468 24.342C97.3468 24.9766 97.4261 25.4853 97.5848 25.868C97.7528 26.2413 98.0048 26.512 98.3408 26.68C98.6768 26.848 99.0921 26.932 99.5868 26.932C100.025 26.932 100.38 26.89 100.651 26.806C100.931 26.722 101.094 26.666 101.141 26.638L101.323 27.058C101.295 27.086 101.192 27.17 101.015 27.31C100.847 27.45 100.599 27.5853 100.273 27.716C99.9555 27.8466 99.5588 27.912 99.0828 27.912Z" fill="#343E36"/>
<path d="M92.0266 27.786V27.212L93.1606 27.016V22.032L92.0406 21.836V21.262L93.9726 20.87L94.3086 20.996V27.016L95.4006 27.212V27.786H92.0266ZM93.5806 19.834C93.3473 19.834 93.1559 19.7547 93.0066 19.596C92.8666 19.428 92.7966 19.218 92.7966 18.966C92.7966 18.7233 92.8759 18.5087 93.0346 18.322C93.1933 18.1353 93.3986 18.042 93.6506 18.042C93.8839 18.042 94.0706 18.1167 94.2106 18.266C94.3599 18.406 94.4346 18.6113 94.4346 18.882C94.4346 19.134 94.3599 19.358 94.2106 19.554C94.0613 19.7407 93.8513 19.834 93.5806 19.834Z" fill="#343E36"/>
<path d="M87.9637 27.786V27.212L89.0837 27.016V19.078L87.9637 18.882V18.308L89.9097 18L90.2317 18.126V27.016L91.3237 27.212V27.786H87.9637Z" fill="#343E36"/>
<path d="M84.0427 27.912C83.3894 27.912 82.8434 27.772 82.4047 27.492C81.9661 27.212 81.6347 26.8106 81.4107 26.288C81.1961 25.7653 81.0887 25.1446 81.0887 24.426C81.0887 23.922 81.1587 23.4506 81.2987 23.012C81.4481 22.564 81.6581 22.172 81.9287 21.836C82.2087 21.4906 82.5447 21.22 82.9367 21.024C83.3381 20.828 83.7861 20.73 84.2807 20.73C84.9527 20.73 85.5127 20.87 85.9607 21.15C86.4087 21.4206 86.7401 21.808 86.9547 22.312C87.1787 22.816 87.2907 23.4133 87.2907 24.104C87.2907 24.6453 87.2207 25.1493 87.0807 25.616C86.9501 26.0733 86.7494 26.4746 86.4787 26.82C86.2081 27.1653 85.8674 27.436 85.4567 27.632C85.0554 27.8186 84.5841 27.912 84.0427 27.912ZM84.3087 27.1C84.7567 27.1 85.1067 26.9926 85.3587 26.778C85.6107 26.554 85.7881 26.2366 85.8907 25.826C85.9934 25.4153 86.0447 24.9253 86.0447 24.356C86.0447 23.7026 85.9887 23.1706 85.8767 22.76C85.7647 22.34 85.5781 22.032 85.3167 21.836C85.0554 21.64 84.6867 21.542 84.2107 21.542C83.6881 21.542 83.2914 21.6493 83.0207 21.864C82.7501 22.0693 82.5681 22.382 82.4747 22.802C82.3907 23.2126 82.3487 23.7306 82.3487 24.356C82.3487 24.9346 82.4047 25.4293 82.5167 25.84C82.6287 26.2506 82.8247 26.5633 83.1047 26.778C83.3941 26.9926 83.7954 27.1 84.3087 27.1Z" fill="#343E36"/>
<path d="M73.0204 27.786V27.212L74.1544 27.016V19.078L73.0344 18.882V18.308L74.9804 18L75.3024 18.126V21.22L75.2744 21.332V21.416C75.4891 21.2947 75.7271 21.1827 75.9884 21.08C76.2497 20.9773 76.5111 20.898 76.7724 20.842C77.0337 20.7767 77.2764 20.744 77.5004 20.744C77.8271 20.744 78.1304 20.8047 78.4104 20.926C78.6904 21.038 78.9144 21.234 79.0824 21.514C79.2504 21.794 79.3344 22.1767 79.3344 22.662V27.016L80.4544 27.212V27.786H77.1084V27.212L78.1864 27.016V22.858C78.1864 22.55 78.1304 22.3167 78.0184 22.158C77.9157 21.99 77.7571 21.8733 77.5424 21.808C77.3277 21.7427 77.0524 21.71 76.7164 21.71C76.5204 21.71 76.2871 21.724 76.0164 21.752C75.7551 21.78 75.5171 21.822 75.3024 21.878V27.016L76.3944 27.212V27.786H73.0204Z" fill="#343E36"/>
<path d="M70.4545 27.8418C70.0531 27.8418 69.7405 27.7764 69.5165 27.6458C69.3018 27.5151 69.1525 27.3331 69.0685 27.0998C68.9845 26.8571 68.9425 26.5864 68.9425 26.2878V21.6118H67.8505V21.0098L68.9425 20.7158L69.2785 19.2598H70.0905V20.8558H72.0645V21.2478L71.8685 21.6118H70.0905V26.1898C70.0905 26.4791 70.1465 26.6704 70.2585 26.7638C70.3798 26.8478 70.5571 26.8898 70.7905 26.8898C71.0518 26.8898 71.2898 26.8664 71.5045 26.8198C71.7191 26.7638 71.8545 26.7264 71.9105 26.7078L72.0505 27.1558C71.8265 27.3611 71.5651 27.5291 71.2665 27.6598C70.9678 27.7811 70.6971 27.8418 70.4545 27.8418Z" fill="#343E36"/>
<path d="M63.4199 27.884C62.9439 27.884 62.5612 27.8046 62.2719 27.646C61.9919 27.4873 61.7865 27.2773 61.6559 27.016C61.5345 26.7453 61.4739 26.456 61.4739 26.148C61.4739 25.756 61.5625 25.4153 61.7399 25.126C61.9265 24.8366 62.2065 24.5986 62.5799 24.412C62.9532 24.2253 63.4199 24.0993 63.9799 24.034L65.2399 23.852V22.802C65.2399 22.5313 65.1839 22.3073 65.0719 22.13C64.9692 21.9526 64.8152 21.8266 64.6099 21.752C64.4139 21.668 64.1665 21.626 63.8679 21.626C63.6345 21.626 63.4385 21.6446 63.2799 21.682C63.1212 21.71 63.0279 21.7286 62.9999 21.738L62.7899 23.026C62.7805 23.0353 62.7432 23.054 62.6779 23.082C62.6125 23.11 62.5005 23.124 62.3419 23.124C62.1832 23.124 62.0339 23.068 61.8939 22.956C61.7632 22.8346 61.6979 22.676 61.6979 22.48C61.6979 22.1906 61.8052 21.934 62.0199 21.71C62.2439 21.486 62.5145 21.304 62.8319 21.164C63.1492 21.0146 63.4665 20.9073 63.7839 20.842C64.1012 20.7673 64.3579 20.73 64.5539 20.73C64.9552 20.73 65.2912 20.8046 65.5619 20.954C65.8325 21.094 66.0379 21.2853 66.1779 21.528C66.3179 21.7706 66.3879 22.0413 66.3879 22.34V26.834L67.3819 27.03V27.562C67.3539 27.5713 67.2792 27.5993 67.1579 27.646C67.0459 27.6926 66.8919 27.7393 66.6959 27.786C66.5092 27.8233 66.2899 27.842 66.0379 27.842C65.7765 27.842 65.5945 27.772 65.4919 27.632C65.3985 27.492 65.3425 27.3473 65.3239 27.198H65.2679C65.1279 27.31 64.9599 27.4173 64.7639 27.52C64.5772 27.6226 64.3719 27.7113 64.1479 27.786C63.9239 27.8513 63.6812 27.884 63.4199 27.884ZM63.9799 27.002C64.3345 27.002 64.6332 26.96 64.8759 26.876C65.1185 26.7826 65.2399 26.736 65.2399 26.736V24.524C64.6612 24.5613 64.1852 24.636 63.8119 24.748C63.4385 24.86 63.1585 25.014 62.9719 25.21C62.7945 25.3966 62.7059 25.6393 62.7059 25.938C62.7059 26.6473 63.1305 27.002 63.9799 27.002Z" fill="#343E36"/>
<path d="M57.13 27.9399C55.7207 27.9399 54.68 27.5479 54.008 26.7639C53.336 25.9799 53 24.8459 53 23.3619C53 22.7272 53.098 22.1206 53.294 21.5419C53.4993 20.9632 53.7933 20.4499 54.176 20.0019C54.5587 19.5539 55.0253 19.1992 55.576 18.9379C56.1267 18.6766 56.752 18.5459 57.452 18.5459C57.9653 18.5459 58.4553 18.5832 58.922 18.6579C59.398 18.7232 59.7947 18.8212 60.112 18.9519V21.1499H59.412L59.118 19.6099C58.894 19.5446 58.614 19.4932 58.278 19.4559C57.9513 19.4092 57.6247 19.3859 57.298 19.3859C56.654 19.3859 56.1173 19.5352 55.688 19.8339C55.2587 20.1232 54.9367 20.5619 54.722 21.1499C54.5073 21.7379 54.4 22.4799 54.4 23.3759C54.4 24.0199 54.4653 24.5799 54.596 25.0559C54.7267 25.5319 54.9133 25.9286 55.156 26.2459C55.3987 26.5539 55.6973 26.7826 56.052 26.9319C56.416 27.0812 56.8313 27.1559 57.298 27.1559C57.6713 27.1559 57.984 27.1279 58.236 27.0719C58.4973 27.0066 58.7027 26.9319 58.852 26.8479C59.0107 26.7639 59.1273 26.6986 59.202 26.6519L59.482 25.2099H60.168V27.3379C59.9907 27.4126 59.7713 27.5012 59.51 27.6039C59.2487 27.6972 58.9267 27.7766 58.544 27.8419C58.1613 27.9072 57.69 27.9399 57.13 27.9399Z" fill="#343E36"/>
<path d="M90.742 15.912C90.0886 15.912 89.5426 15.772 89.104 15.492C88.6653 15.212 88.334 14.8106 88.11 14.288C87.8953 13.7653 87.788 13.1446 87.788 12.426C87.788 11.922 87.858 11.4506 87.998 11.012C88.1473 10.564 88.3573 10.172 88.628 9.83598C88.908 9.49065 89.244 9.21998 89.636 9.02398C90.0373 8.82798 90.4853 8.72998 90.98 8.72998C91.652 8.72998 92.212 8.86998 92.66 9.14998C93.108 9.42065 93.4393 9.80798 93.654 10.312C93.878 10.816 93.99 11.4133 93.99 12.104C93.99 12.6453 93.92 13.1493 93.78 13.616C93.6493 14.0733 93.4486 14.4746 93.178 14.82C92.9073 15.1653 92.5666 15.436 92.156 15.632C91.7546 15.8186 91.2833 15.912 90.742 15.912ZM91.008 15.1C91.456 15.1 91.806 14.9926 92.058 14.778C92.31 14.554 92.4873 14.2366 92.59 13.826C92.6926 13.4153 92.744 12.9253 92.744 12.356C92.744 11.7026 92.688 11.1706 92.576 10.76C92.464 10.34 92.2773 10.032 92.016 9.83598C91.7546 9.63998 91.386 9.54198 90.91 9.54198C90.3873 9.54198 89.9906 9.64931 89.72 9.86398C89.4493 10.0693 89.2673 10.382 89.174 10.802C89.09 11.2126 89.048 11.7306 89.048 12.356C89.048 12.9346 89.104 13.4293 89.216 13.84C89.328 14.2506 89.524 14.5633 89.804 14.778C90.0933 14.9926 90.4946 15.1 91.008 15.1Z" fill="#343E36"/>
<path d="M83.7391 15.786V15.212L84.8591 15.016V7.078L83.7391 6.882V6.308L85.6851 6L86.0071 6.126V15.016L87.0991 15.212V15.786H83.7391Z" fill="#343E36"/>
<path d="M79.2246 15.884C78.7486 15.884 78.3659 15.8046 78.0766 15.646C77.7966 15.4873 77.5912 15.2773 77.4606 15.016C77.3392 14.7453 77.2786 14.456 77.2786 14.148C77.2786 13.756 77.3672 13.4153 77.5446 13.126C77.7312 12.8366 78.0112 12.5986 78.3846 12.412C78.7579 12.2253 79.2246 12.0993 79.7846 12.034L81.0446 11.852V10.802C81.0446 10.5313 80.9886 10.3073 80.8766 10.13C80.7739 9.95265 80.6199 9.82665 80.4146 9.75198C80.2186 9.66798 79.9712 9.62598 79.6726 9.62598C79.4392 9.62598 79.2432 9.64465 79.0846 9.68198C78.9259 9.70998 78.8326 9.72865 78.8046 9.73798L78.5946 11.026C78.5852 11.0353 78.5479 11.054 78.4826 11.082C78.4172 11.11 78.3052 11.124 78.1466 11.124C77.9879 11.124 77.8386 11.068 77.6986 10.956C77.5679 10.8346 77.5026 10.676 77.5026 10.48C77.5026 10.1906 77.6099 9.93398 77.8246 9.70998C78.0486 9.48598 78.3192 9.30398 78.6366 9.16398C78.9539 9.01465 79.2712 8.90731 79.5886 8.84198C79.9059 8.76731 80.1626 8.72998 80.3586 8.72998C80.7599 8.72998 81.0959 8.80465 81.3666 8.95398C81.6372 9.09398 81.8426 9.28531 81.9826 9.52798C82.1226 9.77065 82.1926 10.0413 82.1926 10.34V14.834L83.1866 15.03V15.562C83.1586 15.5713 83.0839 15.5993 82.9626 15.646C82.8506 15.6926 82.6966 15.7393 82.5006 15.786C82.3139 15.8233 82.0946 15.842 81.8426 15.842C81.5812 15.842 81.3992 15.772 81.2966 15.632C81.2032 15.492 81.1472 15.3473 81.1286 15.198H81.0726C80.9326 15.31 80.7646 15.4173 80.5686 15.52C80.3819 15.6226 80.1766 15.7113 79.9526 15.786C79.7286 15.8513 79.4859 15.884 79.2246 15.884ZM79.7846 15.002C80.1392 15.002 80.4379 14.96 80.6806 14.876C80.9232 14.7826 81.0446 14.736 81.0446 14.736V12.524C80.4659 12.5613 79.9899 12.636 79.6166 12.748C79.2432 12.86 78.9632 13.014 78.7766 13.21C78.5992 13.3966 78.5106 13.6393 78.5106 13.938C78.5106 14.6473 78.9352 15.002 79.7846 15.002Z" fill="#343E36"/>
<path d="M68.6987 15.7862V15.2122L69.6647 15.0162V9.64016H68.8107V9.01016L69.6507 8.84216C69.6881 8.29149 69.8234 7.80616 70.0567 7.38616C70.2994 6.96616 70.6167 6.63483 71.0087 6.39216C71.4007 6.14016 71.8394 6.01416 72.3247 6.01416C72.6047 6.01416 72.8147 6.07949 72.9547 6.21016C73.0947 6.33149 73.1647 6.47616 73.1647 6.64416C73.1647 6.81216 73.1181 6.95683 73.0247 7.07816C72.9314 7.19016 72.8474 7.26483 72.7727 7.30216C72.5767 7.23683 72.3807 7.19016 72.1847 7.16216C71.9981 7.12483 71.8114 7.10616 71.6247 7.10616C71.4847 7.10616 71.3401 7.11549 71.1907 7.13416C71.0414 7.14349 70.9107 7.17616 70.7987 7.23216V8.87016H73.7107C73.7387 8.31016 73.8741 7.81549 74.1167 7.38616C74.3594 6.95683 74.6767 6.62083 75.0687 6.37816C75.4701 6.13549 75.9181 6.01416 76.4127 6.01416C76.7021 6.01416 76.9167 6.07949 77.0567 6.21016C77.2061 6.33149 77.2807 6.47616 77.2807 6.64416C77.2807 6.81216 77.2341 6.95683 77.1407 7.07816C77.0474 7.19016 76.9634 7.26483 76.8887 7.30216C76.6834 7.23683 76.4781 7.19016 76.2727 7.16216C76.0767 7.12483 75.8807 7.10616 75.6847 7.10616C75.5447 7.10616 75.4001 7.11549 75.2507 7.13416C75.1014 7.14349 74.9707 7.17616 74.8587 7.23216V8.87016H76.6507V9.27616L76.4687 9.64016H74.8727V14.9882L76.3287 15.2122V15.7862H72.6607V15.2122L73.7247 15.0162V9.64016H70.8127V14.9882L71.9327 15.2122V15.7862H68.6987Z" fill="#343E36"/>
<path d="M64.0138 15.912C63.3512 15.912 62.8425 15.7486 62.4878 15.422C62.1332 15.086 61.9558 14.6053 61.9558 13.98V9.84998L60.7938 9.65398V9.12198L62.7118 8.72998L63.1038 8.92598V13.378C63.1038 13.9846 63.2112 14.4093 63.4258 14.652C63.6405 14.8853 64.0418 15.002 64.6298 15.002C64.8258 15.002 65.0498 14.9646 65.3018 14.89C65.5632 14.806 65.7918 14.708 65.9878 14.596V9.84998L64.8398 9.65398V9.12198L66.7578 8.72998L67.1498 8.92598V14.792L68.1438 15.016V15.548L66.2258 15.828L66.0018 15.128L65.9738 15.142C65.7592 15.366 65.4698 15.5526 65.1058 15.702C64.7512 15.842 64.3872 15.912 64.0138 15.912Z" fill="#343E36"/>
<path d="M53.126 15.7859V15.1839L54.288 14.9459V7.55387L53.126 7.31587V6.71387H56.738C57.6526 6.71387 58.3666 6.90987 58.88 7.30187C59.3933 7.69387 59.65 8.2352 59.65 8.92587C59.65 9.39253 59.5193 9.8032 59.258 10.1579C58.9966 10.5032 58.6093 10.7692 58.096 10.9559C58.488 11.0492 58.8333 11.2032 59.132 11.4179C59.44 11.6325 59.6826 11.8985 59.86 12.2159C60.0373 12.5239 60.126 12.8692 60.126 13.2519C60.126 14.0359 59.8553 14.6565 59.314 15.1139C58.782 15.5619 58.012 15.7859 57.004 15.7859H53.126ZM56.752 15.0159C57.3866 15.0159 57.8766 14.8665 58.222 14.5679C58.5673 14.2692 58.74 13.8305 58.74 13.2519C58.74 12.6545 58.5626 12.2252 58.208 11.9639C57.8533 11.6932 57.2793 11.5579 56.486 11.5579H55.492V14.9319C55.632 14.9505 55.8186 14.9692 56.052 14.9879C56.2946 15.0065 56.528 15.0159 56.752 15.0159ZM55.492 10.7879H56.248C56.9666 10.7879 57.4986 10.6292 57.844 10.3119C58.1986 9.9852 58.376 9.51387 58.376 8.89787C58.376 7.96453 57.7553 7.49787 56.514 7.49787C56.3646 7.49787 56.1966 7.5072 56.01 7.52587C55.8233 7.5352 55.6506 7.55387 55.492 7.58187V10.7879Z" fill="#343E36"/>
</svg>
