<svg width="114" height="44" viewBox="0 0 114 44" fill="none" xmlns="http://www.w3.org/2000/svg">
<path d="M110.769 37.3421C110.45 37.3421 110.144 37.3111 109.851 37.249C109.568 37.1869 109.319 37.116 109.106 37.0362C108.894 36.9564 108.747 36.8855 108.667 36.8234L108.814 35.2007H109.372L109.559 36.2514C109.674 36.3313 109.838 36.4111 110.051 36.4909C110.272 36.5707 110.534 36.6106 110.836 36.6106C111.385 36.6106 111.749 36.5042 111.926 36.2913C112.112 36.0785 112.206 35.8036 112.206 35.4667C112.206 35.2007 112.135 34.9967 111.993 34.8548C111.851 34.7041 111.665 34.5888 111.434 34.509C111.204 34.4203 110.96 34.3405 110.703 34.2696C110.454 34.2075 110.215 34.1366 109.984 34.0568C109.754 33.977 109.541 33.875 109.346 33.7509C109.151 33.6179 108.996 33.4449 108.88 33.2321C108.765 33.0104 108.707 32.7311 108.707 32.3942C108.707 31.9685 108.814 31.6183 109.027 31.3434C109.239 31.0685 109.532 30.8646 109.904 30.7316C110.277 30.5897 110.685 30.5187 111.128 30.5187C111.412 30.5187 111.682 30.5409 111.94 30.5852C112.197 30.6207 112.423 30.6695 112.618 30.7316C112.813 30.7848 112.95 30.8335 113.03 30.8779L112.844 32.5405H112.299L112.112 31.4764C112.059 31.4498 111.922 31.4099 111.7 31.3567C111.487 31.3035 111.261 31.2769 111.022 31.2769C110.525 31.2769 110.179 31.3567 109.984 31.5163C109.798 31.6671 109.705 31.9109 109.705 32.2479C109.705 32.4518 109.767 32.6159 109.891 32.74C110.024 32.8641 110.197 32.9661 110.41 33.0459C110.632 33.1257 110.871 33.2011 111.128 33.272C111.368 33.343 111.611 33.4272 111.86 33.5247C112.108 33.6134 112.334 33.7287 112.538 33.8706C112.751 34.0125 112.919 34.1987 113.043 34.4292C113.168 34.6509 113.23 34.9347 113.23 35.2805C113.23 35.7948 113.114 36.2027 112.884 36.5042C112.653 36.8057 112.347 37.0229 111.966 37.1559C111.594 37.2801 111.195 37.3421 110.769 37.3421Z" fill="#2A322B"/>
<path d="M105.22 37.3421C104.564 37.3421 104.023 37.2047 103.597 36.9298C103.172 36.646 102.857 36.2603 102.653 35.7726C102.449 35.2849 102.347 34.7351 102.347 34.1233C102.347 33.3962 102.471 32.7622 102.72 32.2213C102.977 31.6804 103.327 31.2636 103.77 30.971C104.223 30.6695 104.741 30.5187 105.327 30.5187C105.717 30.5187 106.049 30.5852 106.324 30.7183C106.599 30.8513 106.821 31.033 106.989 31.2636C107.167 31.4941 107.295 31.7557 107.375 32.0483C107.464 32.3321 107.508 32.6292 107.508 32.9395C107.508 33.4183 107.464 33.7376 107.375 33.8972C107.286 34.0479 107.118 34.1233 106.869 34.1233H103.531C103.531 34.5401 103.597 34.9214 103.73 35.2672C103.863 35.613 104.081 35.8923 104.382 36.1051C104.693 36.3091 105.105 36.4111 105.619 36.4111C106.107 36.4111 106.484 36.3623 106.75 36.2647C107.025 36.1672 107.18 36.1096 107.215 36.0918L107.402 36.4643C107.375 36.4909 107.269 36.5751 107.082 36.717C106.905 36.8589 106.657 37.0007 106.337 37.1426C106.027 37.2756 105.655 37.3421 105.22 37.3421ZM103.544 33.5114L106.391 33.405C106.417 33.2454 106.431 33.0681 106.431 32.873C106.431 32.3676 106.342 31.9774 106.165 31.7025C105.987 31.4276 105.646 31.2902 105.14 31.2902C104.777 31.2902 104.475 31.3789 104.236 31.5562C104.005 31.7247 103.832 31.9774 103.717 32.3144C103.611 32.6425 103.553 33.0415 103.544 33.5114Z" fill="#2A322B"/>
<path d="M98.4897 37.2224V36.6771L99.5671 36.4909V31.7557L98.503 31.5695V31.0242L100.339 30.6518L100.658 30.7715V36.4909L101.695 36.6771V37.2224H98.4897ZM99.9662 29.6675C99.7445 29.6675 99.5627 29.5921 99.4208 29.4414C99.2878 29.2818 99.2213 29.0822 99.2213 28.8428C99.2213 28.6123 99.2967 28.4083 99.4474 28.231C99.5982 28.0536 99.7932 27.965 100.033 27.965C100.254 27.965 100.432 28.0359 100.565 28.1778C100.707 28.3108 100.778 28.5059 100.778 28.763C100.778 29.0024 100.707 29.2153 100.565 29.4015C100.423 29.5788 100.223 29.6675 99.9662 29.6675Z" fill="#2A322B"/>
<path d="M93.8815 37.2224V36.6771L94.786 36.4909V31.6892L93.7485 31.503V30.9577L95.6639 30.5852L95.89 31.3301C95.9343 31.2858 96.0363 31.2015 96.1959 31.0774C96.3644 30.9444 96.555 30.8202 96.7679 30.705C96.9895 30.5808 97.1935 30.5187 97.3797 30.5187C97.5659 30.5187 97.7078 30.5808 97.8053 30.705C97.9117 30.8202 97.9649 30.9754 97.9649 31.1705C97.9649 31.3212 97.9295 31.4542 97.8585 31.5695C97.7965 31.6848 97.6989 31.7868 97.5659 31.8754L97.0073 31.7291C96.9009 31.7025 96.8078 31.6848 96.7279 31.6759C96.6481 31.6582 96.5595 31.6493 96.4619 31.6493C96.3644 31.6493 96.2624 31.6582 96.156 31.6759C96.0496 31.6937 95.9565 31.7203 95.8767 31.7557V36.4776L97.1004 36.6505V37.2224H93.8815Z" fill="#2A322B"/>
<path d="M90.6074 37.3421C89.9512 37.3421 89.4103 37.2047 88.9847 36.9298C88.559 36.646 88.2442 36.2603 88.0403 35.7726C87.8364 35.2849 87.7344 34.7351 87.7344 34.1233C87.7344 33.3962 87.8585 32.7622 88.1068 32.2213C88.364 31.6804 88.7142 31.2636 89.1576 30.971C89.6098 30.6695 90.1285 30.5187 90.7138 30.5187C91.1039 30.5187 91.4365 30.5852 91.7114 30.7183C91.9862 30.8513 92.2079 31.033 92.3764 31.2636C92.5538 31.4941 92.6823 31.7557 92.7621 32.0483C92.8508 32.3321 92.8951 32.6292 92.8951 32.9395C92.8951 33.4183 92.8508 33.7376 92.7621 33.8972C92.6735 34.0479 92.505 34.1233 92.2567 34.1233H88.9182C88.9182 34.5401 88.9847 34.9214 89.1177 35.2672C89.2507 35.613 89.4679 35.8923 89.7694 36.1051C90.0798 36.3091 90.4921 36.4111 91.0064 36.4111C91.4941 36.4111 91.871 36.3623 92.137 36.2647C92.4119 36.1672 92.5671 36.1096 92.6025 36.0918L92.7887 36.4643C92.7621 36.4909 92.6557 36.5751 92.4695 36.717C92.2922 36.8589 92.0439 37.0007 91.7247 37.1426C91.4143 37.2756 91.0419 37.3421 90.6074 37.3421ZM88.9315 33.5114L91.7779 33.405C91.8045 33.2454 91.8178 33.0681 91.8178 32.873C91.8178 32.3676 91.7291 31.9774 91.5517 31.7025C91.3744 31.4276 91.033 31.2902 90.5276 31.2902C90.164 31.2902 89.8625 31.3789 89.6231 31.5562C89.3926 31.7247 89.2196 31.9774 89.1044 32.3144C88.998 32.6425 88.9403 33.0415 88.9315 33.5114Z" fill="#2A322B"/>
<path d="M85.5545 37.2756C85.1732 37.2756 84.8762 37.2136 84.6634 37.0894C84.4594 36.9653 84.3176 36.7924 84.2378 36.5707C84.1579 36.3401 84.118 36.083 84.118 35.7992V31.3567H83.0806V30.7848L84.118 30.5054L84.4373 29.1221H85.2087V30.6385H87.0842V31.0109L86.8979 31.3567H85.2087V35.7061C85.2087 35.981 85.2619 36.1628 85.3683 36.2515C85.4836 36.3313 85.6521 36.3712 85.8738 36.3712C86.1221 36.3712 86.3482 36.349 86.5521 36.3047C86.7561 36.2515 86.8846 36.216 86.9378 36.1983L87.0709 36.6239C86.858 36.819 86.6098 36.9786 86.326 37.1027C86.0422 37.218 85.7851 37.2756 85.5545 37.2756Z" fill="#2A322B"/>
<path d="M80.1118 37.3421C79.4556 37.3421 78.9147 37.2047 78.4891 36.9298C78.0634 36.646 77.7486 36.2603 77.5447 35.7726C77.3407 35.2849 77.2388 34.7351 77.2388 34.1233C77.2388 33.3962 77.3629 32.7622 77.6112 32.2213C77.8683 31.6804 78.2186 31.2636 78.662 30.971C79.1142 30.6695 79.6329 30.5187 80.2182 30.5187C80.6083 30.5187 80.9409 30.5852 81.2158 30.7183C81.4906 30.8513 81.7123 31.033 81.8808 31.2636C82.0581 31.4941 82.1867 31.7557 82.2665 32.0483C82.3552 32.3321 82.3995 32.6292 82.3995 32.9395C82.3995 33.4183 82.3552 33.7376 82.2665 33.8972C82.1779 34.0479 82.0094 34.1233 81.7611 34.1233H78.4226C78.4226 34.5401 78.4891 34.9214 78.6221 35.2672C78.7551 35.613 78.9723 35.8923 79.2738 36.1051C79.5842 36.3091 79.9965 36.4111 80.5108 36.4111C80.9985 36.4111 81.3754 36.3623 81.6414 36.2647C81.9163 36.1672 82.0714 36.1096 82.1069 36.0918L82.2931 36.4643C82.2665 36.4909 82.1601 36.5751 81.9739 36.717C81.7966 36.8589 81.5483 37.0007 81.2291 37.1426C80.9187 37.2756 80.5463 37.3421 80.1118 37.3421ZM78.4359 33.5114L81.2823 33.405C81.3089 33.2454 81.3222 33.0681 81.3222 32.873C81.3222 32.3676 81.2335 31.9774 81.0561 31.7025C80.8788 31.4276 80.5374 31.2902 80.032 31.2902C79.6684 31.2902 79.3669 31.3789 79.1275 31.5562C78.897 31.7247 78.724 31.9774 78.6088 32.3144C78.5024 32.6425 78.4447 33.0415 78.4359 33.5114Z" fill="#2A322B"/>
<path d="M65.9775 37.2224V36.6771L67.0416 36.4909V31.7424L65.9775 31.5296V31.0242L67.7732 30.6517L68.119 31.1572C68.4293 30.9798 68.7707 30.8335 69.1432 30.7183C69.5156 30.5941 69.8437 30.532 70.1274 30.532C70.5087 30.532 70.8146 30.5985 71.0452 30.7316C71.2846 30.8557 71.4708 31.0242 71.6038 31.237C71.7901 31.1306 72.0162 31.0242 72.2822 30.9178C72.5482 30.8114 72.8275 30.7183 73.1201 30.6384C73.4128 30.5586 73.6877 30.5187 73.9448 30.5187C74.4414 30.5187 74.836 30.6739 75.1286 30.9843C75.4301 31.2858 75.5808 31.7025 75.5808 32.2346V36.4909L76.6449 36.6771V37.2224H73.466V36.6771L74.4901 36.4909V32.5272C74.4901 32.137 74.3882 31.8621 74.1842 31.7025C73.9891 31.534 73.6566 31.4498 73.1867 31.4498C73.0182 31.4498 72.8009 31.4631 72.5349 31.4897C72.2689 31.5163 72.0339 31.5606 71.83 31.6227C71.83 31.6671 71.83 31.7203 71.83 31.7823C71.8388 31.8444 71.8433 31.902 71.8433 31.9552V36.4909L72.6546 36.6904V37.2224H69.9013V36.6904L70.7526 36.4909V32.5272C70.7526 32.1282 70.655 31.8488 70.46 31.6892C70.2649 31.5296 69.9324 31.4498 69.4624 31.4498C69.3028 31.4498 69.0988 31.4631 68.8505 31.4897C68.6023 31.5074 68.3628 31.5518 68.1323 31.6227V36.4909L69.1698 36.6771V37.2224H65.9775Z" fill="#2A322B"/>
<path d="M62.8364 37.3421C62.1802 37.3421 61.6393 37.2047 61.2137 36.9298C60.788 36.646 60.4732 36.2603 60.2693 35.7726C60.0654 35.2849 59.9634 34.7351 59.9634 34.1233C59.9634 33.3962 60.0875 32.7622 60.3358 32.2213C60.593 31.6804 60.9432 31.2636 61.3866 30.971C61.8388 30.6695 62.3575 30.5187 62.9428 30.5187C63.333 30.5187 63.6655 30.5852 63.9404 30.7183C64.2152 30.8513 64.4369 31.033 64.6054 31.2636C64.7828 31.4941 64.9113 31.7557 64.9911 32.0483C65.0798 32.3321 65.1241 32.6292 65.1241 32.9395C65.1241 33.4183 65.0798 33.7376 64.9911 33.8972C64.9025 34.0479 64.734 34.1233 64.4857 34.1233H61.1472C61.1472 34.5401 61.2137 34.9214 61.3467 35.2672C61.4797 35.613 61.6969 35.8923 61.9984 36.1051C62.3088 36.3091 62.7211 36.4111 63.2354 36.4111C63.7231 36.4111 64.1 36.3623 64.366 36.2647C64.6409 36.1672 64.7961 36.1096 64.8315 36.0918L65.0177 36.4643C64.9911 36.4909 64.8847 36.5751 64.6985 36.717C64.5212 36.8589 64.2729 37.0007 63.9537 37.1426C63.6433 37.2756 63.2709 37.3421 62.8364 37.3421ZM61.1605 33.5114L64.0069 33.405C64.0335 33.2454 64.0468 33.0681 64.0468 32.873C64.0468 32.3676 63.9581 31.9774 63.7807 31.7025C63.6034 31.4276 63.262 31.2902 62.7566 31.2902C62.393 31.2902 62.0915 31.3789 61.8521 31.5562C61.6216 31.7247 61.4487 31.9774 61.3334 32.3144C61.227 32.6425 61.1693 33.0415 61.1605 33.5114Z" fill="#2A322B"/>
<path d="M56.0092 37.3687C54.6703 37.3687 53.6816 36.9963 53.0431 36.2515C52.4047 35.5066 52.0854 34.4292 52.0854 33.0193C52.0854 32.4164 52.1786 31.84 52.3648 31.2902C52.5598 30.7404 52.8392 30.2527 53.2027 29.8271C53.5663 29.4015 54.0097 29.0645 54.5328 28.8162C55.056 28.5679 55.6501 28.4438 56.3151 28.4438C56.8029 28.4438 57.2684 28.4793 57.7117 28.5502C58.164 28.6123 58.5408 28.7054 58.8423 28.8295V30.9178H58.1773L57.898 29.4547C57.6851 29.3926 57.4191 29.3438 57.0999 29.3084C56.7895 29.264 56.4792 29.2419 56.1688 29.2419C55.557 29.2419 55.0471 29.3837 54.6392 29.6675C54.2313 29.9424 53.9254 30.3591 53.7215 30.9178C53.5175 31.4764 53.4155 32.1814 53.4155 33.0326C53.4155 33.6445 53.4776 34.1765 53.6018 34.6287C53.7259 35.081 53.9032 35.4578 54.1338 35.7593C54.3643 36.0519 54.6481 36.2692 54.9851 36.4111C55.3309 36.5529 55.7255 36.6239 56.1688 36.6239C56.5235 36.6239 56.8206 36.5973 57.06 36.5441C57.3083 36.482 57.5034 36.4111 57.6452 36.3313C57.796 36.2515 57.9068 36.1894 57.9778 36.1451L58.2438 34.7751H58.8955V36.7968C58.7271 36.8677 58.5187 36.952 58.2704 37.0495C58.0221 37.1382 57.7162 37.2136 57.3526 37.2756C56.9891 37.3377 56.5413 37.3687 56.0092 37.3687Z" fill="#2A322B"/>
<path d="M95.8674 25.9413C95.3176 25.9413 94.8255 25.8216 94.391 25.5822C93.9654 25.3428 93.6284 24.9837 93.3801 24.5048C93.1407 24.026 93.021 23.4274 93.021 22.7092C93.021 22.2392 93.0831 21.787 93.2072 21.3525C93.3402 20.918 93.5309 20.5323 93.7792 20.1953C94.0363 19.8584 94.3511 19.5968 94.7235 19.4106C95.1048 19.2155 95.5393 19.1179 96.027 19.1179C96.4704 19.1179 96.8428 19.1977 97.1443 19.3574C97.4458 19.5081 97.6719 19.712 97.8226 19.9692C97.9822 20.2175 98.0621 20.4879 98.0621 20.7806C98.0621 20.887 98.0355 20.9889 97.9822 21.0865C97.929 21.184 97.8537 21.2594 97.7561 21.3126C97.6586 21.3658 97.5389 21.3924 97.397 21.3924C97.2995 21.3924 97.2152 21.3835 97.1443 21.3658C97.0822 21.3392 97.0379 21.317 97.0113 21.2993L96.8118 20.0623C96.7763 20.0357 96.6788 20.0002 96.5191 19.9559C96.3684 19.9116 96.1822 19.8894 95.9605 19.8894C95.5083 19.8894 95.1536 19.9869 94.8964 20.182C94.6481 20.3682 94.4708 20.6564 94.3644 21.0466C94.2669 21.4367 94.2181 21.9377 94.2181 22.5496C94.2181 23.1526 94.2935 23.6358 94.4442 23.9994C94.6038 24.3541 94.8432 24.6112 95.1624 24.7708C95.4817 24.9304 95.8763 25.0103 96.3462 25.0103C96.763 25.0103 97.1 24.9704 97.3571 24.8905C97.6231 24.8107 97.7783 24.7575 97.8226 24.7309L97.9955 25.13C97.9689 25.1566 97.8714 25.2364 97.7029 25.3694C97.5433 25.5024 97.3083 25.631 96.998 25.7551C96.6965 25.8792 96.3196 25.9413 95.8674 25.9413Z" fill="#2A322B"/>
<path d="M89.1636 25.8216V25.2763L90.241 25.0901V20.3549L89.1769 20.1687V19.6234L91.0124 19.2509L91.3316 19.3706V25.0901L92.3691 25.2763V25.8216H89.1636ZM90.64 18.2667C90.4183 18.2667 90.2365 18.1913 90.0946 18.0406C89.9616 17.8809 89.8951 17.6814 89.8951 17.442C89.8951 17.2115 89.9705 17.0075 90.1212 16.8302C90.272 16.6528 90.4671 16.5641 90.7065 16.5641C90.9282 16.5641 91.1055 16.6351 91.2385 16.777C91.3804 16.91 91.4513 17.1051 91.4513 17.3622C91.4513 17.6016 91.3804 17.8144 91.2385 18.0007C91.0966 18.178 90.8971 18.2667 90.64 18.2667Z" fill="#2A322B"/>
<path d="M85.3032 25.8216V25.2763L86.3673 25.0901V17.5484L85.3032 17.3622V16.8169L87.1521 16.5242L87.458 16.644V25.0901L88.4955 25.2763V25.8216H85.3032Z" fill="#2A322B"/>
<path d="M81.578 25.9413C80.9573 25.9413 80.4385 25.8083 80.0218 25.5423C79.605 25.2763 79.2902 24.895 79.0774 24.3984C78.8735 23.9018 78.7715 23.3122 78.7715 22.6294C78.7715 22.1505 78.838 21.7028 78.971 21.286C79.1129 20.8604 79.3124 20.4879 79.5695 20.1687C79.8356 19.8406 80.1548 19.5835 80.5272 19.3973C80.9085 19.211 81.3341 19.1179 81.8041 19.1179C82.4425 19.1179 82.9746 19.2509 83.4002 19.517C83.8258 19.7741 84.1406 20.1421 84.3446 20.6209C84.5574 21.0998 84.6638 21.6673 84.6638 22.3235C84.6638 22.8378 84.5973 23.3166 84.4643 23.76C84.3401 24.1945 84.1495 24.5758 83.8923 24.9038C83.6352 25.2319 83.3115 25.4891 82.9214 25.6753C82.5401 25.8526 82.0923 25.9413 81.578 25.9413ZM81.8307 25.1699C82.2563 25.1699 82.5889 25.0679 82.8283 24.8639C83.0677 24.6511 83.2362 24.3496 83.3337 23.9595C83.4312 23.5693 83.48 23.1038 83.48 22.5629C83.48 21.9422 83.4268 21.4367 83.3204 21.0466C83.214 20.6475 83.0367 20.3549 82.7884 20.1687C82.5401 19.9825 82.1898 19.8894 81.7376 19.8894C81.241 19.8894 80.8642 19.9914 80.607 20.1953C80.3499 20.3904 80.177 20.6874 80.0883 21.0865C80.0085 21.4766 79.9686 21.9688 79.9686 22.5629C79.9686 23.1127 80.0218 23.5826 80.1282 23.9728C80.2346 24.3629 80.4208 24.66 80.6868 24.8639C80.9617 25.0679 81.343 25.1699 81.8307 25.1699Z" fill="#2A322B"/>
<path d="M71.106 25.8216V25.2763L72.1833 25.0901V17.5484L71.1193 17.3622V16.8169L72.9681 16.5242L73.274 16.644V19.5835L73.2474 19.6899V19.7697C73.4514 19.6544 73.6775 19.548 73.9258 19.4505C74.174 19.3529 74.4223 19.2775 74.6706 19.2243C74.9189 19.1623 75.1494 19.1312 75.3623 19.1312C75.6726 19.1312 75.9608 19.1889 76.2268 19.3041C76.4928 19.4106 76.7057 19.5968 76.8653 19.8628C77.0249 20.1288 77.1047 20.4924 77.1047 20.9535V25.0901L78.1688 25.2763V25.8216H74.9898V25.2763L76.014 25.0901V21.1397C76.014 20.8471 75.9608 20.6254 75.8544 20.4746C75.7569 20.315 75.6061 20.2042 75.4022 20.1421C75.1982 20.08 74.9366 20.049 74.6174 20.049C74.4312 20.049 74.2095 20.0623 73.9524 20.0889C73.7041 20.1155 73.478 20.1554 73.274 20.2086V25.0901L74.3115 25.2763V25.8216H71.106Z" fill="#2A322B"/>
<path d="M68.6683 25.8748C68.287 25.8748 67.99 25.8127 67.7771 25.6886C67.5732 25.5645 67.4313 25.3915 67.3515 25.1699C67.2717 24.9393 67.2318 24.6822 67.2318 24.3984V19.9559H66.1943V19.3839L67.2318 19.1046L67.551 17.7213H68.3225V19.2376H70.1979V19.6101L70.0117 19.9559H68.3225V24.3053C68.3225 24.5802 68.3757 24.762 68.4821 24.8506C68.5974 24.9304 68.7659 24.9703 68.9875 24.9703C69.2358 24.9703 69.4619 24.9482 69.6659 24.9038C69.8698 24.8506 69.9984 24.8152 70.0516 24.7974L70.1846 25.2231C69.9718 25.4181 69.7235 25.5778 69.4398 25.7019C69.156 25.8172 68.8989 25.8748 68.6683 25.8748Z" fill="#2A322B"/>
<path d="M61.9851 25.9147C61.5328 25.9147 61.1693 25.8393 60.8944 25.6886C60.6284 25.5379 60.4333 25.3383 60.3091 25.0901C60.1939 24.8329 60.1362 24.558 60.1362 24.2654C60.1362 23.893 60.2205 23.5693 60.3889 23.2944C60.5663 23.0195 60.8323 22.7934 61.187 22.6161C61.5417 22.4387 61.9851 22.319 62.5171 22.257L63.7142 22.084V21.0865C63.7142 20.8293 63.661 20.6165 63.5546 20.448C63.457 20.2796 63.3107 20.1598 63.1156 20.0889C62.9294 20.0091 62.6944 19.9692 62.4107 19.9692C62.189 19.9692 62.0028 19.9869 61.8521 20.0224C61.7013 20.049 61.6126 20.0667 61.586 20.0756L61.3865 21.2993C61.3777 21.3082 61.3422 21.3259 61.2801 21.3525C61.218 21.3791 61.1116 21.3924 60.9609 21.3924C60.8101 21.3924 60.6683 21.3392 60.5353 21.2328C60.4111 21.1175 60.349 20.9668 60.349 20.7806C60.349 20.5057 60.451 20.2618 60.655 20.049C60.8678 19.8362 61.1249 19.6633 61.4264 19.5303C61.7279 19.3884 62.0294 19.2864 62.3309 19.2243C62.6324 19.1534 62.8762 19.1179 63.0624 19.1179C63.4437 19.1179 63.763 19.1889 64.0201 19.3307C64.2773 19.4638 64.4723 19.6455 64.6053 19.8761C64.7384 20.1066 64.8049 20.3638 64.8049 20.6475V24.9171L65.7492 25.1034V25.6088C65.7226 25.6177 65.6517 25.6443 65.5364 25.6886C65.43 25.7329 65.2837 25.7773 65.0975 25.8216C64.9201 25.8571 64.7118 25.8748 64.4723 25.8748C64.2241 25.8748 64.0511 25.8083 63.9536 25.6753C63.8649 25.5423 63.8117 25.4048 63.794 25.263H63.7408C63.6078 25.3694 63.4482 25.4714 63.262 25.5689C63.0846 25.6664 62.8895 25.7507 62.6767 25.8216C62.4639 25.8837 62.2333 25.9147 61.9851 25.9147ZM62.5171 25.0768C62.8541 25.0768 63.1378 25.0369 63.3684 24.957C63.5989 24.8684 63.7142 24.824 63.7142 24.824V22.7225C63.1644 22.758 62.7122 22.8289 62.3575 22.9353C62.0028 23.0417 61.7368 23.188 61.5594 23.3742C61.391 23.5516 61.3067 23.7821 61.3067 24.0659C61.3067 24.7398 61.7102 25.0768 62.5171 25.0768Z" fill="#2A322B"/>
<path d="M56.0092 25.9679C54.6703 25.9679 53.6816 25.5955 53.0431 24.8506C52.4047 24.1058 52.0854 23.0284 52.0854 21.6185C52.0854 21.0155 52.1786 20.4392 52.3648 19.8894C52.5598 19.3396 52.8392 18.8519 53.2027 18.4263C53.5663 18.0007 54.0097 17.6637 54.5328 17.4154C55.056 17.1671 55.6501 17.043 56.3151 17.043C56.8029 17.043 57.2684 17.0785 57.7117 17.1494C58.164 17.2115 58.5408 17.3046 58.8423 17.4287V19.517H58.1773L57.898 18.0539C57.6851 17.9918 57.4191 17.943 57.0999 17.9075C56.7895 17.8632 56.4792 17.841 56.1688 17.841C55.557 17.841 55.0471 17.9829 54.6392 18.2667C54.2313 18.5416 53.9254 18.9583 53.7215 19.517C53.5175 20.0756 53.4155 20.7806 53.4155 21.6318C53.4155 22.2437 53.4776 22.7757 53.6018 23.2279C53.7259 23.6802 53.9032 24.057 54.1338 24.3585C54.3643 24.6511 54.6481 24.8684 54.9851 25.0103C55.3309 25.1521 55.7255 25.2231 56.1688 25.2231C56.5235 25.2231 56.8206 25.1965 57.06 25.1433C57.3083 25.0812 57.5034 25.0103 57.6452 24.9304C57.796 24.8506 57.9068 24.7886 57.9778 24.7442L58.2438 23.3742H58.8955V25.396C58.7271 25.4669 58.5187 25.5512 58.2704 25.6487C58.0221 25.7374 57.7162 25.8127 57.3526 25.8748C56.9891 25.9369 56.5413 25.9679 56.0092 25.9679Z" fill="#2A322B"/>
<path d="M87.9427 14.5405C87.322 14.5405 86.8033 14.4075 86.3865 14.1415C85.9698 13.8755 85.655 13.4942 85.4422 12.9976C85.2382 12.501 85.1362 11.9113 85.1362 11.2286C85.1362 10.7497 85.2027 10.3019 85.3357 9.88517C85.4776 9.45954 85.6771 9.08711 85.9343 8.76789C86.2003 8.4398 86.5195 8.18265 86.892 7.99644C87.2733 7.81022 87.6989 7.71712 88.1688 7.71712C88.8073 7.71712 89.3393 7.85013 89.765 8.11615C90.1906 8.3733 90.5054 8.74129 90.7093 9.22012C90.9221 9.69896 91.0286 10.2665 91.0286 10.9226C91.0286 11.4369 90.962 11.9158 90.829 12.3591C90.7049 12.7936 90.5142 13.1749 90.2571 13.503C89.9999 13.8311 89.6763 14.0883 89.2861 14.2745C88.9048 14.4518 88.457 14.5405 87.9427 14.5405ZM88.1954 13.769C88.6211 13.769 88.9536 13.6671 89.193 13.4631C89.4324 13.2503 89.6009 12.9488 89.6985 12.5587C89.796 12.1685 89.8448 11.703 89.8448 11.1621C89.8448 10.5414 89.7916 10.0359 89.6852 9.64575C89.5787 9.24673 89.4014 8.95411 89.1531 8.76789C88.9048 8.58168 88.5546 8.48857 88.1023 8.48857C87.6058 8.48857 87.2289 8.59055 86.9718 8.79449C86.7146 8.98957 86.5417 9.28663 86.453 9.68566C86.3732 10.0758 86.3333 10.568 86.3333 11.1621C86.3333 11.7118 86.3865 12.1818 86.4929 12.572C86.5993 12.9621 86.7856 13.2592 87.0516 13.4631C87.3265 13.6671 87.7077 13.769 88.1954 13.769Z" fill="#2A322B"/>
<path d="M81.2896 14.4208V13.8755L82.3536 13.6893V6.14762L81.2896 5.9614V5.41606L83.1384 5.12344L83.4443 5.24315V13.6893L84.4818 13.8755V14.4208H81.2896Z" fill="#2A322B"/>
<path d="M77.0007 14.5139C76.5485 14.5139 76.1849 14.4385 75.91 14.2878C75.644 14.137 75.4489 13.9375 75.3248 13.6892C75.2095 13.4321 75.1519 13.1572 75.1519 12.8646C75.1519 12.4922 75.2361 12.1685 75.4046 11.8936C75.5819 11.6187 75.8479 11.3926 76.2026 11.2153C76.5573 11.0379 77.0007 10.9182 77.5327 10.8561L78.7298 10.6832V9.68566C78.7298 9.42851 78.6766 9.21569 78.5702 9.04721C78.4727 8.87873 78.3263 8.75902 78.1313 8.68809C77.9451 8.60828 77.7101 8.56838 77.4263 8.56838C77.2046 8.56838 77.0184 8.58611 76.8677 8.62158C76.7169 8.64818 76.6283 8.66592 76.6017 8.67479L76.4021 9.89847C76.3933 9.90734 76.3578 9.92507 76.2957 9.95168C76.2337 9.97828 76.1273 9.99158 75.9765 9.99158C75.8258 9.99158 75.6839 9.93837 75.5509 9.83197C75.4267 9.71669 75.3647 9.56595 75.3647 9.37974C75.3647 9.10485 75.4666 8.861 75.6706 8.64818C75.8834 8.43537 76.1406 8.26246 76.442 8.12945C76.7435 7.98757 77.045 7.8856 77.3465 7.82352C77.648 7.75259 77.8918 7.71712 78.0781 7.71712C78.4594 7.71712 78.7786 7.78806 79.0357 7.92993C79.2929 8.06294 79.488 8.24472 79.621 8.47527C79.754 8.70582 79.8205 8.96297 79.8205 9.24673V13.5163L80.7649 13.7025V14.208C80.7383 14.2168 80.6673 14.2434 80.552 14.2878C80.4456 14.3321 80.2993 14.3765 80.1131 14.4208C79.9358 14.4563 79.7274 14.474 79.488 14.474C79.2397 14.474 79.0668 14.4075 78.9692 14.2745C78.8806 14.1415 78.8274 14.004 78.8096 13.8622H78.7564C78.6234 13.9686 78.4638 14.0705 78.2776 14.1681C78.1002 14.2656 77.9052 14.3499 77.6923 14.4208C77.4795 14.4829 77.249 14.5139 77.0007 14.5139ZM77.5327 13.6759C77.8697 13.6759 78.1534 13.636 78.384 13.5562C78.6145 13.4676 78.7298 13.4232 78.7298 13.4232V11.3217C78.18 11.3571 77.7278 11.4281 77.3731 11.5345C77.0184 11.6409 76.7524 11.7872 76.5751 11.9734C76.4066 12.1508 76.3223 12.3813 76.3223 12.6651C76.3223 13.339 76.7258 13.6759 77.5327 13.6759Z" fill="#2A322B"/>
<path d="M67.0005 14.4208V13.8755L67.9183 13.6892V8.58168H67.1069V7.98314L67.905 7.82352C67.9404 7.30035 68.069 6.83926 68.2907 6.44023C68.5212 6.0412 68.8227 5.72641 69.1951 5.49586C69.5676 5.25644 69.9843 5.13673 70.4454 5.13673C70.7115 5.13673 70.911 5.19881 71.044 5.32295C71.177 5.43822 71.2435 5.57567 71.2435 5.73528C71.2435 5.89489 71.1992 6.03233 71.1105 6.14761C71.0218 6.25401 70.942 6.32495 70.8711 6.36042C70.6849 6.29835 70.4986 6.25401 70.3124 6.22741C70.1351 6.19194 69.9577 6.17421 69.7804 6.17421C69.6474 6.17421 69.5099 6.18308 69.3681 6.20081C69.2262 6.20968 69.102 6.24071 68.9956 6.29392V7.85013H71.7622C71.7888 7.31809 71.9174 6.84812 72.148 6.44023C72.3785 6.03233 72.68 5.71311 73.0524 5.48256C73.4337 5.25201 73.8593 5.13673 74.3293 5.13673C74.6042 5.13673 74.8081 5.19881 74.9412 5.32295C75.083 5.43822 75.154 5.57567 75.154 5.73528C75.154 5.89489 75.1096 6.03233 75.021 6.14761C74.9323 6.25401 74.8525 6.32495 74.7815 6.36042C74.5865 6.29835 74.3914 6.25401 74.1963 6.22741C74.0101 6.19194 73.8239 6.17421 73.6377 6.17421C73.5047 6.17421 73.3672 6.18308 73.2253 6.20081C73.0835 6.20968 72.9593 6.24071 72.8529 6.29392V7.85013H74.5554V8.23585L74.3825 8.58168H72.8662V13.6626L74.2495 13.8755V14.4208H70.7647V13.8755L71.7755 13.6892V8.58168H69.0089V13.6626L70.073 13.8755V14.4208H67.0005Z" fill="#2A322B"/>
<path d="M62.5495 14.5405C61.9199 14.5405 61.4366 14.3853 61.0996 14.075C60.7627 13.7557 60.5942 13.2991 60.5942 12.705V8.78119L59.4902 8.59498V8.08954L61.3125 7.71712L61.6849 7.90333V12.133C61.6849 12.7094 61.7869 13.1129 61.9908 13.3434C62.1948 13.5651 62.5761 13.6759 63.1347 13.6759C63.3209 13.6759 63.5337 13.6405 63.7731 13.5695C64.0214 13.4897 64.2387 13.3966 64.4249 13.2902V8.78119L63.3342 8.59498V8.08954L65.1564 7.71712L65.5289 7.90333V13.4764L66.4732 13.6892V14.1947L64.651 14.4607L64.4382 13.7956L64.4116 13.8089C64.2076 14.0218 63.9328 14.1991 63.5869 14.341C63.25 14.474 62.9041 14.5405 62.5495 14.5405Z" fill="#2A322B"/>
<path d="M52.2051 14.4208V13.8489L53.3091 13.6227V6.59985L52.2051 6.37373V5.80179H55.6367C56.5057 5.80179 57.1841 5.988 57.6718 6.36043C58.1595 6.73285 58.4033 7.24716 58.4033 7.90334C58.4033 8.3467 58.2792 8.73686 58.0309 9.07382C57.7826 9.40191 57.4146 9.65463 56.9269 9.83197C57.2993 9.92065 57.6274 10.067 57.9112 10.2709C58.2038 10.4749 58.4344 10.7276 58.6028 11.0291C58.7713 11.3217 58.8556 11.6498 58.8556 12.0133C58.8556 12.7582 58.5984 13.3479 58.0841 13.7824C57.5787 14.208 56.8471 14.4208 55.8894 14.4208H52.2051ZM55.65 13.6892C56.253 13.6892 56.7185 13.5474 57.0466 13.2636C57.3747 12.9799 57.5388 12.5631 57.5388 12.0133C57.5388 11.4458 57.3703 11.0379 57.0333 10.7896C56.6964 10.5325 56.151 10.4039 55.3973 10.4039H54.4529V13.6094C54.5859 13.6272 54.7633 13.6449 54.985 13.6626C55.2155 13.6804 55.4372 13.6892 55.65 13.6892ZM54.4529 9.67236H55.1712C55.854 9.67236 56.3594 9.52162 56.6875 9.22013C57.0245 8.90978 57.1929 8.46198 57.1929 7.87674C57.1929 6.99001 56.6033 6.54664 55.4239 6.54664C55.282 6.54664 55.1224 6.55551 54.9451 6.57324C54.7677 6.58211 54.6037 6.59984 54.4529 6.62645V9.67236Z" fill="#2A322B"/>
<path d="M8.74979 23.9979L8.87159 24.3538C9.14968 25.1651 9.49907 25.9414 9.91016 26.677L4.08956 30.4191C3.1519 28.4354 2.5389 26.2727 2.31738 23.9979H8.74979Z" fill="url(#paint0_linear_179_85)"/>
<path d="M10.4296 27.5641C11.2711 28.816 12.3069 29.926 13.5003 30.8559L9.18644 37.2909C7.28821 35.7027 5.67581 33.5377 4.48389 31.3652L10.4296 27.5641Z" fill="url(#paint1_linear_179_85)"/>
<path d="M14.2656 31.4949C15.1441 32.0844 16.0943 32.5809 17.104 32.9686L17.5114 33.1247V41.7088C17.4717 41.6995 17.4317 41.691 17.3923 41.6814L17.3881 41.68L17.1166 41.6142C14.49 40.9578 12.0737 39.3081 9.98535 37.7219L14.2656 31.4949Z" fill="url(#paint2_linear_179_85)"/>
<path d="M17.5372 23.9979V32.0022C13.9225 30.6182 11.0843 27.6799 9.83691 23.9979H17.5372Z" fill="url(#paint3_linear_179_85)"/>
<path d="M11.6661 9.99293C10.4814 11.3512 9.55634 12.9349 8.95657 14.6768L8.83238 15.0369H3.50391C4.63121 12.0575 6.47459 9.41284 8.82435 7.3134L11.6661 9.99293Z" fill="url(#paint4_linear_179_85)"/>
<path d="M17.5933 15.0162H9.89111C11.1377 11.3367 13.977 8.39231 17.5933 7.00775V15.0162Z" fill="url(#paint5_linear_179_85)"/>
<path d="M17.5307 5.97628L17.1312 6.13197C15.2442 6.8636 13.5636 7.97679 12.1729 9.38162L9.46338 6.74151C11.7383 4.85931 14.437 3.48255 17.3977 2.76767C17.442 2.75747 17.4867 2.74795 17.5307 2.73795V5.97628Z" fill="url(#paint6_linear_179_85)"/>
<path d="M26.4995 2.77188C29.2721 3.40471 31.8202 4.62169 34.0149 6.30136L31.4846 8.94101C30.1827 7.73659 28.6525 6.77354 26.9546 6.11761L26.4995 5.94179V2.77188Z" fill="url(#paint7_linear_179_85)"/>
<path d="M34.787 6.8811C37.399 9.05164 39.4372 11.8574 40.6469 15.049H35.3495L35.2243 14.6889C34.5542 12.7643 33.4841 11.0346 32.105 9.58751L34.787 6.8811Z" fill="url(#paint8_linear_179_85)"/>
<path d="M26.5166 7.02901C30.1328 8.41356 32.9717 11.3533 34.2183 15.0375H26.5166V7.02901Z" fill="url(#paint9_linear_179_85)"/>
<path d="M41.7652 23.9692C41.5315 26.4034 40.8559 28.8616 39.8181 30.9534L34.0122 26.9476C34.4913 26.1262 34.8925 25.2516 35.2032 24.332L35.3237 23.9761L41.7652 23.9692Z" fill="url(#paint10_linear_179_85)"/>
<path d="M39.5217 31.7191C38.2549 34.002 36.2091 36.2647 34.2217 37.8916L30.0308 31.0916C31.2836 30.1403 32.3739 28.9846 33.2615 27.6691L39.5217 31.7191Z" fill="url(#paint11_linear_179_85)"/>
<path d="M33.5626 38.1216C31.45 39.582 29.0414 41.1326 26.4443 41.7162V33.1332L26.9038 32.9604C27.7778 32.6324 28.6081 32.2259 29.3871 31.7506L33.5626 38.1216Z" fill="url(#paint12_linear_179_85)"/>
<path d="M34.5786 23.9276C33.2716 27.6338 30.2985 30.6 26.5112 31.9949V23.9276H34.5786Z" fill="url(#paint13_linear_179_85)"/>
<path d="M22.0146 1.12892C22.6626 1.12893 23.3032 1.15889 23.9361 1.2217C24.2612 1.24671 24.5903 1.29186 24.8871 1.3284L24.8954 1.32933C25.2159 1.3737 25.5317 1.42775 25.8464 1.49169L25.8455 1.49262C29.3282 2.13244 32.5046 3.62793 35.1551 5.77627C38.1236 8.17942 40.4209 11.3827 41.7137 15.0552C41.7864 15.259 41.8545 15.458 41.9224 15.6666V15.6676L42.1024 16.2437L42.1052 16.2548C42.1457 16.4006 42.2075 16.5998 42.2527 16.7856H42.2518L42.4401 17.5695V17.5705C42.4723 17.7164 42.5013 17.8639 42.5283 18.0084L42.6053 18.4287L42.6071 18.437C42.6548 18.7181 42.7033 19.016 42.7426 19.311L42.7445 19.3287L42.7491 19.3658C42.7773 19.6198 42.8058 19.8861 42.8298 20.1442L42.866 20.5431L42.9078 20.5302L42.9226 21.2909C42.9273 21.5272 42.9328 21.7661 42.9328 22.0146C42.9328 22.2828 42.9228 22.5539 42.9133 22.8042V22.884L42.9124 22.9053L42.8595 23.6652C42.6351 26.6258 41.7867 29.411 40.4556 31.8929L40.4546 31.8939C38.9969 34.5996 36.9687 36.9453 34.5214 38.7735H34.5204C32.0053 40.6452 29.0553 41.9713 25.8511 42.5663L25.852 42.5673C25.5432 42.6252 25.2303 42.6788 24.9103 42.7231L24.9019 42.7241C24.5949 42.7618 24.2776 42.8004 23.9593 42.8298C23.3277 42.8881 22.6839 42.9226 22.0285 42.9226C21.8215 42.9226 21.6111 42.9181 21.4171 42.9133V42.9124C21.2513 42.9119 21.0925 42.9019 20.9495 42.8929C20.7681 42.8877 20.5908 42.8781 20.4021 42.8577V42.8567C20.1446 42.8338 19.8652 42.8097 19.5893 42.776V42.7769C19.1923 42.7328 18.7916 42.6744 18.4018 42.6062L18.3981 42.6053H18.3804L18.3303 42.596C17.966 42.5289 17.5998 42.4554 17.2355 42.3669C14.1639 41.6452 11.3552 40.2554 8.97531 38.3486C4.588 34.8434 1.64663 29.6017 1.19293 23.6708V23.6661L1.14004 22.9072L1.13911 22.8877V22.7875C1.12546 22.5321 1.11963 22.2712 1.11963 22.0193C1.11963 21.7707 1.12511 21.5318 1.12983 21.2956V21.277L1.13169 21.2585C1.13992 21.1638 1.14452 21.0664 1.14932 20.9514V20.944C1.16341 20.6902 1.17824 20.4183 1.2087 20.1442C1.2327 19.8861 1.2612 19.6197 1.28942 19.3658L1.29591 19.3073L1.29777 19.3036C1.33628 19.0108 1.3792 18.7185 1.43323 18.4287C1.48129 18.1457 1.53479 17.8591 1.59837 17.5705C1.64476 17.3362 1.70492 17.1062 1.76074 16.8969C1.84595 16.5344 1.95427 16.1809 2.05671 15.8503L2.05949 15.8392C2.11145 15.6833 2.14725 15.5906 2.18382 15.4718C2.22272 15.3407 2.26732 15.199 2.31185 15.0654L2.43896 14.6822H2.45844C3.69492 11.3933 5.73893 8.49431 8.34627 6.23925C10.8477 4.06474 13.8756 2.48028 17.2197 1.6856L17.2262 1.68375C17.5851 1.60241 17.9444 1.52481 18.3155 1.45643L18.3665 1.44716H18.3804L18.3869 1.44623C18.7703 1.37913 19.1611 1.32229 19.5578 1.2783V1.27737C19.8434 1.23658 20.1434 1.21538 20.3993 1.19294H20.403C20.5739 1.17909 20.7566 1.16292 20.9504 1.15768V1.15861C21.1064 1.14529 21.2555 1.14031 21.4032 1.14006V1.13913C21.597 1.1344 21.8029 1.12892 22.0146 1.12892ZM18.373 42.6007H18.3767C18.3733 42.6 18.371 42.6001 18.3693 42.5997C18.3667 42.5992 18.369 42.6 18.373 42.6007ZM2.24041 22.0193C2.24042 22.2691 2.24461 22.5187 2.25804 22.7559L2.25897 22.7717V22.8432L2.31 23.5854L2.35639 24.1087C2.89549 29.329 5.47559 33.9515 9.28891 37.1582L9.67488 37.4736V37.4746C11.9263 39.2785 14.5842 40.5936 17.4916 41.2767L17.4962 41.2776C17.8319 41.3593 18.1753 41.4275 18.5298 41.4929C18.5394 41.4941 18.5485 41.4943 18.5567 41.4957C18.5714 41.4981 18.5841 41.5006 18.592 41.5021C18.6053 41.5049 18.6004 41.5035 18.6077 41.5049H18.6068C18.9722 41.5686 19.3454 41.6228 19.7127 41.6636L19.7192 41.6645L20.5125 41.7434L20.5227 41.7443C20.6799 41.7613 20.8305 41.7705 20.995 41.7749H21.0052L21.0145 41.7759C21.1701 41.7856 21.2999 41.7935 21.431 41.7935H21.444C21.6391 41.7982 21.837 41.8028 22.0285 41.8028C22.6449 41.8028 23.2541 41.7711 23.8563 41.7155C24.1518 41.6883 24.4488 41.6512 24.7553 41.6135C25.0521 41.5724 25.3476 41.5219 25.646 41.466H25.647C28.6779 40.9031 31.4695 39.6479 33.8515 37.8754L34.2811 37.546C36.2649 35.9783 37.9377 34.043 39.204 31.8391L39.4684 31.3631C40.728 29.0145 41.5312 26.3807 41.7434 23.5808L41.7935 22.8497V22.7726L41.7944 22.7615C41.8039 22.5092 41.8129 22.2586 41.8129 22.0146C41.8129 21.9314 41.8102 21.8489 41.8092 21.7669L41.7898 21.3327C41.7848 21.2247 41.7805 21.1228 41.7721 21.0219L41.7703 21.0089V20.9959C41.7613 20.7535 41.7434 20.5103 41.7165 20.2676L41.7155 20.2574C41.6923 20.0065 41.6641 19.745 41.6357 19.4901L41.6367 19.4892C41.6344 19.4731 41.6303 19.4587 41.6292 19.4456C41.593 19.1755 41.5486 18.8986 41.5021 18.6245V18.6235C41.4486 18.336 41.4045 18.0773 41.3463 17.8126L41.1663 17.0583L41.1644 17.05C41.1242 16.8846 41.0806 16.7504 41.0262 16.5545V16.5536L40.8573 16.0136C40.7926 15.8147 40.7281 15.6252 40.6588 15.431L40.6578 15.4282C39.4354 11.9546 37.2618 8.92211 34.4509 6.64655C31.9409 4.61185 28.933 3.19557 25.634 2.59113L25.6238 2.58928C25.3312 2.52985 25.0387 2.48001 24.7424 2.43898V2.43805C24.4257 2.399 24.1399 2.36009 23.8507 2.33785L23.8377 2.33692C23.2413 2.27728 22.6337 2.24971 22.0146 2.2497C21.8184 2.2497 21.6253 2.25422 21.4301 2.25898H21.4162C21.2763 2.25899 21.1476 2.26355 21.0182 2.27568L20.981 2.27754C20.8246 2.28177 20.6756 2.29365 20.4967 2.30816C20.212 2.33312 19.962 2.35102 19.7165 2.38609L19.6979 2.38795C19.3247 2.42891 18.9543 2.48325 18.5864 2.54753C18.5849 2.54783 18.5828 2.54935 18.578 2.55031C18.5703 2.55189 18.5576 2.55434 18.5428 2.55681C18.5329 2.55846 18.5214 2.55717 18.5094 2.55866C18.1627 2.62272 17.8226 2.69745 17.473 2.77669L17.4721 2.77577C14.3087 3.52859 11.4456 5.02886 9.08015 7.0854L9.07923 7.08633C6.51769 9.30173 4.52849 12.1721 3.37511 15.4291L3.34078 15.5256C3.31206 15.6152 3.28252 15.7073 3.25635 15.7956L3.2545 15.8012C3.21521 15.9288 3.15618 16.0924 3.12275 16.1927C3.01928 16.5267 2.92191 16.847 2.84719 17.1678L2.84534 17.1771L2.84255 17.1854C2.78556 17.3992 2.73371 17.6011 2.69503 17.7987L2.69225 17.8117C2.63312 18.08 2.58191 18.3504 2.53545 18.6245L2.53452 18.6337C2.48562 18.896 2.44494 19.1652 2.40834 19.4428C2.40824 19.4443 2.40846 19.4459 2.40834 19.4474C2.4073 19.461 2.40558 19.4832 2.40092 19.5105C2.37337 19.7589 2.34561 20.0131 2.32299 20.2574L2.32206 20.2676C2.29585 20.5034 2.28153 20.7421 2.26732 20.9978C2.26309 21.0992 2.25841 21.208 2.24969 21.3188L2.24041 22.0193Z" fill="#231F20"/>
<path d="M34.7362 38.1601V38.3289H34.1693L33.7054 38.6277L28.751 30.9307L29.6936 30.3239L34.7362 38.1601Z" fill="#231F20"/>
<path d="M11.153 27.1532L4.52846 31.4573L3.91797 30.5184L10.5425 26.2143L11.153 27.1532Z" fill="#231F20"/>
<path d="M14.9536 30.7026L9.78112 38.2242L8.85889 37.5896L14.0314 30.0679L14.9536 30.7026Z" fill="#231F20"/>
<path d="M40.2714 31.1604L40.315 31.19L40.3522 31.2281L40.367 31.242L39.9708 31.6382L39.8966 31.7115L39.6415 32.0872L32.6709 27.3508L33.2999 26.4249L40.2714 31.1604Z" fill="#231F20"/>
<path d="M34.2052 23.9694C32.9572 27.6519 30.1146 30.5988 26.4938 31.9845V23.9694H34.2052ZM35.7665 22.8494H25.3691V33.6169L26.8924 33.0332C30.8549 31.5194 33.9063 28.3447 35.2635 24.33L35.7665 22.8494Z" fill="#231F20"/>
<path d="M17.6057 23.9694V31.9845C13.9849 30.5988 11.1423 27.6566 9.89427 23.9694H17.6057ZM18.7304 22.8494H8.33301L8.83603 24.33C10.198 28.3447 13.2493 31.5147 17.2071 33.0332L18.7304 33.6169V22.8494Z" fill="#231F20"/>
<path d="M12.7974 9.79441L12.4096 10.198L12.0208 10.6016L8.31982 7.04719L9.09547 6.24001L12.7974 9.79441Z" fill="#231F20"/>
<path d="M34.8084 6.20227L35.2111 6.59102L31.5045 10.4303L30.6992 9.65276L34.4049 5.81352L34.8084 6.20227Z" fill="#231F20"/>
<path d="M26.494 7.13239C30.1148 8.51807 32.9573 11.4603 34.2054 15.1475H26.494V7.13239ZM25.374 5.49994V16.2674H35.7714L35.2684 14.7869C33.9064 10.7722 30.8551 7.60219 26.8973 6.08363L25.374 5.49994Z" fill="#231F20"/>
<path d="M17.6057 7.13239V15.1475H9.89427C11.1423 11.465 13.9849 8.51807 17.6057 7.13239ZM18.7304 5.49994L17.2071 6.08363C13.2446 7.59744 10.1932 10.7722 8.83603 14.7869L8.33301 16.2674H18.7304V5.49994Z" fill="#231F20"/>
<path d="M26.5536 1.63673C26.3147 1.58309 26.0806 1.52458 25.8417 1.48069C25.5296 1.4173 25.2176 1.36367 24.9006 1.31978C24.5837 1.28077 24.2667 1.23689 23.9498 1.2125C23.3159 1.14911 22.6722 1.11986 22.0188 1.11986C21.8091 1.11986 21.6043 1.12473 21.4044 1.12961C21.2484 1.12961 21.0972 1.13449 20.9412 1.14911C20.7608 1.15399 20.5901 1.16862 20.4097 1.18325C20.1317 1.20763 19.8489 1.22713 19.5759 1.26614C19.176 1.31003 18.781 1.36854 18.391 1.43681C18.3666 1.44168 18.3471 1.44656 18.3227 1.44656C18.0399 1.5002 17.7619 1.55871 17.484 1.6221V14.9584H2.35818C2.34843 14.9876 2.3338 15.0169 2.32404 15.0461H2.31917C2.27528 15.1778 2.2314 15.3192 2.19239 15.4509C2.15338 15.5776 2.10462 15.7093 2.06073 15.841C1.95346 16.1872 1.84618 16.5382 1.76329 16.8942C1.70477 17.1136 1.64626 17.3379 1.60237 17.5622C1.53898 17.8499 1.48535 18.1376 1.43659 18.4253C1.38295 18.713 1.33906 19.0056 1.30005 19.303C1.30005 19.3128 1.30005 19.3323 1.29518 19.3469C1.26592 19.6102 1.23666 19.8833 1.21228 20.1466C1.18303 20.4099 1.1684 20.6732 1.15377 20.9365C1.14889 21.0536 1.14402 21.1657 1.13426 21.2779C1.12939 21.5217 1.12451 21.7606 1.12451 22.0093C1.12451 22.2726 1.12939 22.5408 1.14402 22.7992V22.8821L1.19765 23.6623C1.20741 23.7842 1.22203 23.9061 1.23666 24.028H17.4937V42.4111C17.7717 42.4745 18.0496 42.533 18.3324 42.5866C18.3568 42.5866 18.3763 42.5915 18.4007 42.5964C18.7908 42.6646 19.1906 42.7232 19.5856 42.767C19.8636 42.8012 20.1464 42.8256 20.4194 42.8499C20.5999 42.8694 20.7705 42.8792 20.9509 42.8841C21.107 42.8938 21.2581 42.9036 21.4142 42.9036C21.6141 42.9085 21.8238 42.9133 22.0286 42.9133C22.682 42.9133 23.3256 42.8792 23.9595 42.8207C24.2765 42.7914 24.5934 42.7524 24.9104 42.7134C25.2273 42.6695 25.5394 42.6159 25.8515 42.5574C26.0904 42.5086 26.3245 42.4501 26.5634 42.4013V24.028H42.8205C42.8302 23.9061 42.8497 23.7842 42.8595 23.6623C42.879 23.4039 42.8936 23.1454 42.9131 22.8821V22.7992C42.9229 22.5408 42.9326 22.2726 42.9326 22.0093C42.9326 21.7606 42.9277 21.5217 42.9229 21.2779C42.918 21.1706 42.9131 21.0536 42.9034 20.9365C42.8936 20.6732 42.8741 20.4099 42.8448 20.1466C42.8205 19.8833 42.7912 19.6102 42.7619 19.3469C42.7571 19.3274 42.7571 19.3128 42.7571 19.303C42.7181 19.0104 42.6693 18.713 42.6205 18.4253C42.5669 18.1376 42.5181 17.8499 42.4548 17.5622C42.3962 17.2989 42.3328 17.0307 42.2646 16.7674C42.2207 16.587 42.1671 16.4163 42.1183 16.2408C42.0598 16.0457 42.0013 15.8556 41.9379 15.6605C41.8696 15.4509 41.8013 15.2509 41.7282 15.0461C41.7185 15.0169 41.7038 14.9876 41.6941 14.9584H26.5634V1.63673H26.5536Z" fill="url(#paint14_radial_179_85)"/>
<path d="M25.4431 22.9083H41.7891C41.7903 22.8905 41.7914 22.872 41.7928 22.8527V22.7784L41.7937 22.7571C41.8035 22.4966 41.8123 22.2484 41.8123 22.0093C41.8123 21.7782 41.8078 21.5548 41.803 21.3144C41.7981 21.2062 41.7945 21.117 41.7872 21.0295L41.7854 21.0035L41.7844 20.9776C41.7757 20.7421 41.7578 20.5065 41.7315 20.2706L41.7297 20.2502C41.7074 20.0091 41.6802 19.7569 41.6527 19.5079C41.6472 19.4731 41.643 19.4412 41.6406 19.4133C41.6052 19.1532 41.5624 18.8847 41.5163 18.6126V18.6117C41.4602 18.3096 41.4181 18.0632 41.3614 17.8054L41.1804 17.0483L41.1786 17.04L41.1767 17.0326C41.1378 16.8726 41.102 16.7663 41.0394 16.5408H41.0385C40.991 16.3829 40.9438 16.2309 40.8947 16.0779H25.4431V2.54496C25.2174 2.50198 24.992 2.4627 24.7639 2.43084V2.43177C24.4239 2.38992 24.1473 2.35058 23.864 2.32878L23.838 2.32693C23.2449 2.26763 22.6385 2.23971 22.0186 2.23971C21.8246 2.23972 21.6324 2.24408 21.4313 2.24899L21.4183 2.24992H21.4044C21.2719 2.24992 21.1569 2.25338 21.0453 2.26384L21.0082 2.26755L20.9711 2.26847C20.8289 2.27233 20.6927 2.28304 20.5063 2.29816L20.5072 2.29909C20.2003 2.32601 19.9675 2.34186 19.7343 2.37517L19.7158 2.37703L19.6981 2.37981C19.3327 2.41992 18.9684 2.47325 18.6043 2.53661V16.0779H3.16289C3.15019 16.1146 3.139 16.1473 3.13042 16.1725L2.97918 16.6744C2.93268 16.8357 2.89022 16.9927 2.85393 17.1485L2.85022 17.1652L2.84558 17.1829C2.78693 17.4028 2.73761 17.5944 2.70177 17.7776L2.69621 17.8036C2.63795 18.068 2.58709 18.3367 2.54033 18.6126L2.53941 18.6219L2.53755 18.6302C2.49101 18.8799 2.4519 19.1386 2.41601 19.4087C2.41489 19.4232 2.41091 19.4441 2.40766 19.4699C2.37865 19.731 2.3513 19.9971 2.32787 20.2502L2.32694 20.2604L2.32509 20.2706C2.30035 20.4933 2.28673 20.7209 2.2722 20.9822L2.27313 20.9831C2.26903 21.0815 2.26175 21.1957 2.25272 21.3153C2.24791 21.5554 2.24437 21.7785 2.24437 22.0093C2.24437 22.26 2.24897 22.5055 2.26199 22.7357L2.26385 22.7673V22.8415L2.26849 22.9083H18.6135V41.4959C18.9768 41.5591 19.3465 41.6133 19.7093 41.6536L19.7223 41.6555L20.5192 41.7343L20.5397 41.7362C20.6832 41.7517 20.8232 41.7607 20.9813 41.7649H21.0008L21.0212 41.7668C21.1846 41.777 21.3 41.7835 21.4146 41.7835H21.4276L21.4415 41.7844C21.6425 41.7893 21.8395 41.7937 22.0288 41.7937V42.9135L21.4146 42.9033C21.2585 42.9033 21.1067 42.8936 20.9507 42.8839C20.7704 42.879 20.5994 42.869 20.419 42.8495C20.1462 42.8252 19.8636 42.8011 19.5859 42.767C19.3883 42.745 19.1893 42.7195 18.9912 42.6909L18.4011 42.5962L18.3324 42.587C18.0496 42.5333 17.7716 42.4741 17.4937 42.4107V24.0282H1.23678L1.19781 23.6626L1.144 22.8823V22.7988C1.12938 22.5405 1.12451 22.2725 1.12451 22.0093L1.13472 21.2782L1.1542 20.9367C1.16883 20.6734 1.1834 20.4096 1.21265 20.1463L1.29523 19.3465C1.29998 19.3319 1.29987 19.3126 1.29987 19.3029C1.33887 19.0055 1.38262 18.7128 1.43625 18.4252C1.48501 18.1376 1.53895 17.85 1.60233 17.5623C1.6462 17.3381 1.70434 17.1137 1.76284 16.8943C1.80431 16.7162 1.85231 16.5393 1.90294 16.3636L2.06066 15.8413C2.10455 15.7096 2.1534 15.5774 2.19241 15.4507C2.23141 15.3191 2.27565 15.1777 2.31952 15.0461H2.32416C2.33391 15.0169 2.34874 14.9872 2.35849 14.958H17.4844V1.6218C17.6233 1.59011 17.7624 1.56012 17.9019 1.53087L18.3231 1.44644L18.3909 1.43717C18.586 1.40302 18.7825 1.37119 18.98 1.34253L19.5757 1.26645C19.8487 1.22744 20.1318 1.20733 20.4098 1.18295C20.5901 1.16832 20.761 1.15442 20.9414 1.14955C21.0192 1.14225 21.0958 1.13682 21.1724 1.13377L21.4044 1.13006C21.6042 1.12519 21.809 1.11986 22.0186 1.11986C22.6718 1.11986 23.3156 1.14928 23.9493 1.21264C24.2662 1.23701 24.5835 1.28034 24.9003 1.31933C25.2173 1.36322 25.53 1.41738 25.842 1.48077C25.9613 1.50268 26.0793 1.52823 26.1974 1.555L26.5537 1.63664H26.5629V14.958H41.6944C41.7042 14.9872 41.7181 15.0169 41.7278 15.0461C41.8009 15.2508 41.8693 15.4508 41.9375 15.6603C42.0009 15.8554 42.0599 16.0461 42.1184 16.2411C42.1672 16.4165 42.2212 16.587 42.265 16.7672C42.3333 17.0305 42.3958 17.299 42.4543 17.5623C42.5177 17.85 42.5668 18.1375 42.6204 18.4252C42.6691 18.7128 42.7178 19.0104 42.7568 19.3029C42.7568 19.3126 42.7575 19.3271 42.7623 19.3465C42.7916 19.6097 42.8205 19.883 42.8449 20.1463C42.8742 20.4096 42.8936 20.6734 42.9034 20.9367C42.9131 21.0537 42.918 21.171 42.9228 21.2782C42.9277 21.5219 42.933 21.7607 42.933 22.0093L42.9266 22.4064C42.9229 22.5384 42.9184 22.6698 42.9136 22.7988V22.8823C42.8941 23.1456 42.8793 23.4042 42.8598 23.6626L42.8208 24.0282H26.5629V42.4014C26.3242 42.4501 26.0901 42.5085 25.8513 42.5573C25.5393 42.6158 25.2274 42.6693 24.9105 42.7131L24.4346 42.7707C24.2762 42.7889 24.1179 42.8062 23.9595 42.8208L23.4826 42.8597C23.0035 42.894 22.5189 42.9135 22.0288 42.9135V41.7937C22.6431 41.7937 23.2521 41.7613 23.8565 41.7056C24.1536 41.6781 24.4535 41.641 24.7732 41.6016C24.9954 41.5706 25.2173 41.5327 25.4431 41.4922V22.9083Z" fill="#231F20"/>
<path d="M21.9879 0C22.6649 3.81049e-06 23.3362 0.0309119 24.0013 0.0964912L24.0022 0.0955634C24.1772 0.109031 24.354 0.128271 24.5236 0.148448L25.0033 0.207827L25.0116 0.208755L25.02 0.210611C25.3531 0.25677 25.6806 0.313547 26.0072 0.37947C29.6771 1.05218 33.0254 2.62855 35.8177 4.89322L36.3948 5.3766C39.2379 7.84463 41.44 11.0341 42.7159 14.6583H42.7178C42.7943 14.8728 42.8653 15.0827 42.9367 15.3022V15.3031L43.1251 15.9071L43.1279 15.9183L43.1316 15.9294C43.1655 16.0514 43.2333 16.2773 43.2819 16.474C43.354 16.7525 43.4208 17.0335 43.4814 17.3063L43.4823 17.3081C43.5165 17.4636 43.5475 17.6222 43.576 17.7748L43.6549 18.2062L43.6567 18.2155L43.6576 18.2248C43.7063 18.5122 43.7572 18.8228 43.7987 19.1331L43.7996 19.134L43.8005 19.1405L43.8098 19.2138V19.2231C43.8286 19.3927 43.8458 19.5686 43.8636 19.7445L43.9601 19.713L43.9898 21.2346C43.9946 21.4761 44 21.7263 44 21.9879C44 22.2613 43.9898 22.5355 43.9805 22.7821V22.9009L43.9777 22.9426L43.9239 23.7239C43.6877 26.8418 42.7938 29.7755 41.3929 32.3886L41.392 32.3904C39.8583 35.2384 37.7245 37.7067 35.1497 39.631L35.1479 39.6319C32.5021 41.6017 29.3982 42.9976 26.0257 43.6242L26.0267 43.6252C25.7044 43.6856 25.3738 43.7423 25.0339 43.7894L25.0256 43.7912L25.0172 43.7922C24.7036 43.8308 24.37 43.8715 24.0337 43.9026C23.3715 43.9637 22.6942 44 22.0028 44C21.7927 44 21.5802 43.9944 21.3886 43.9898C21.195 43.9898 21.0113 43.9777 20.8644 43.9685C20.6789 43.9629 20.4936 43.9521 20.2956 43.9313C20.0297 43.9076 19.7263 43.8828 19.4263 43.846V43.8451C19.0242 43.8001 18.6199 43.7415 18.2266 43.6734H18.209L18.1079 43.6549C17.7279 43.5848 17.3393 43.5074 16.95 43.4127V43.4118C13.7215 42.6515 10.7683 41.1905 8.26577 39.1847C3.64961 35.4951 0.553541 29.9753 0.0760796 23.7294L0.0751518 23.7211L0.0222672 22.9417L0.0194838 22.9037V22.7877C0.0057281 22.52 0 22.2498 0 21.9926C1.28069e-06 21.731 0.00537712 21.4808 0.0102058 21.2392V21.2021L0.013917 21.165C0.0211515 21.0817 0.0247257 20.9937 0.0296896 20.8746L0.0306174 20.8662V20.8588C0.0449451 20.6008 0.0614532 20.3068 0.0946356 20.008C0.119074 19.746 0.147122 19.4776 0.175354 19.2231V19.2157L0.184632 19.1433L0.190199 19.0913L0.19391 19.0811C0.232642 18.7913 0.275821 18.4986 0.330297 18.2062H0.331225C0.381124 17.9129 0.436785 17.6124 0.503796 17.3081C0.554927 17.0522 0.619063 16.8043 0.675439 16.5928H0.676366C0.768109 16.2055 0.882017 15.8315 0.985324 15.498L0.989035 15.4868L0.992746 15.4748C1.05501 15.2879 1.07996 15.2278 1.11614 15.1102C1.15693 14.9728 1.20332 14.8236 1.25067 14.6815L1.50582 13.9151H1.54293C2.8558 10.5973 4.95432 7.67235 7.60425 5.37939C10.2367 3.09021 13.423 1.42189 16.9416 0.585442L16.9528 0.582659C17.3243 0.498401 17.7015 0.417309 18.093 0.345142L18.1942 0.326586H18.2118C18.6077 0.257983 19.0125 0.19843 19.4254 0.153087V0.154015C19.7273 0.11258 20.0436 0.0887008 20.2826 0.0677294L20.2901 0.0668016C20.4555 0.0533855 20.6517 0.0379298 20.8607 0.0315452C21.0408 0.0165476 21.2106 0.00928661 21.3737 0.009278V0.0102058C21.5648 0.00555981 21.773 0 21.9879 0ZM1.29057 19.3326L1.20707 20.1314C1.17785 20.3945 1.16323 20.6579 1.14862 20.921L1.12913 21.2615C1.12426 21.5051 1.11986 21.7441 1.11985 21.9926C1.11985 22.2557 1.12473 22.5239 1.13934 22.7821V22.8647L1.19315 23.6441C1.64606 29.5687 4.5824 34.8066 8.96533 38.3098C11.3419 40.2149 14.1472 41.6033 17.2153 42.3244C17.5757 42.4121 17.941 42.4854 18.3111 42.5536C18.3353 42.5536 18.3546 42.5589 18.3788 42.5638C18.7684 42.632 19.1682 42.6897 19.5627 42.7336C19.8401 42.7676 20.1223 42.7927 20.3949 42.8171C20.5751 42.8365 20.7463 42.8456 20.9265 42.8505C21.0822 42.8602 21.2329 42.8699 21.3886 42.8699L22.0028 42.8801C22.6552 42.8801 23.2978 42.8458 23.9308 42.7874C24.089 42.7727 24.2475 42.7555 24.4058 42.7373L24.8808 42.6807C25.1973 42.6368 25.5091 42.5833 25.8207 42.5248C29.0201 41.9304 31.9661 40.6046 34.4789 38.7338C36.9236 36.9067 38.9496 34.5629 40.4057 31.8588C41.7352 29.3788 42.5828 26.5969 42.8068 23.6394C42.8263 23.3813 42.8412 23.1231 42.8607 22.8601V22.7775C42.8704 22.5193 42.8801 22.251 42.8801 21.9879C42.8801 21.7395 42.8748 21.5004 42.8699 21.2568L42.856 21.2615C42.8512 21.1544 42.8463 21.0377 42.8365 20.921C42.8268 20.6579 42.8073 20.3945 42.7781 20.1314L42.6955 19.3326L42.6899 19.289C42.651 18.9966 42.6023 18.6987 42.5536 18.4113C42.5268 18.2678 42.5014 18.1243 42.4747 17.9808L42.3884 17.5493C42.33 17.2863 42.2664 17.0182 42.1982 16.7551L42.0525 16.2291L41.8716 15.6492C41.8034 15.4397 41.7359 15.2396 41.6629 15.035C40.453 11.5956 38.3613 8.56707 35.6609 6.22276L35.1126 5.76349C32.4633 3.61483 29.2879 2.11904 25.8058 1.48077C25.4942 1.41743 25.1825 1.36318 24.866 1.31933C24.5494 1.28035 24.2324 1.237 23.9159 1.21263C23.4411 1.16514 22.9608 1.1366 22.475 1.12542L21.9879 1.11985C21.7785 1.11985 21.5734 1.12519 21.3737 1.13006L21.1427 1.13377C21.0661 1.13682 20.9895 1.14225 20.9117 1.14954C20.7316 1.15441 20.5611 1.16834 20.381 1.18295C20.1034 1.20731 19.8205 1.22747 19.5478 1.26645L18.9522 1.34253C18.7552 1.37112 18.5594 1.40218 18.3649 1.43623L18.2962 1.44644L17.747 1.55499C17.5648 1.59339 17.3832 1.63417 17.2005 1.67561L16.5779 1.83333C13.4839 2.66962 10.6793 4.18842 8.33721 6.22554L7.83713 6.67274C5.37515 8.94526 3.459 11.8103 2.31765 15.035H2.31301C2.26918 15.1665 2.22578 15.308 2.18683 15.4395C2.14787 15.5662 2.0989 15.6977 2.05508 15.8292L1.89735 16.3516C1.84683 16.5269 1.79958 16.7035 1.75818 16.8813C1.69974 17.1006 1.64057 17.3252 1.59674 17.5493C1.53348 17.8366 1.48027 18.124 1.4316 18.4113C1.37803 18.6987 1.33417 18.9918 1.29521 19.289C1.29521 19.2988 1.29537 19.3182 1.29057 19.3326Z" fill="white"/>
<defs>
<linearGradient id="paint0_linear_179_85" x1="3.96972" y1="26.6867" x2="9.76337" y2="25.4453" gradientUnits="userSpaceOnUse">
<stop stop-color="#75CEF3"/>
<stop offset="1" stop-color="#1C485D"/>
</linearGradient>
<linearGradient id="paint1_linear_179_85" x1="6.50769" y1="32.1858" x2="13.338" y2="30.8736" gradientUnits="userSpaceOnUse">
<stop stop-color="#75CEF3"/>
<stop offset="1" stop-color="#1C485D"/>
</linearGradient>
<linearGradient id="paint2_linear_179_85" x1="11.7501" y1="35.2129" x2="18.2968" y2="33.5683" gradientUnits="userSpaceOnUse">
<stop stop-color="#75CEF3"/>
<stop offset="1" stop-color="#1C485D"/>
</linearGradient>
<linearGradient id="paint3_linear_179_85" x1="17.4797" y1="32.2098" x2="9.88488" y2="24.1444" gradientUnits="userSpaceOnUse">
<stop stop-color="#75CEF3"/>
<stop offset="1" stop-color="#1C485D"/>
</linearGradient>
<linearGradient id="paint4_linear_179_85" x1="3.59084" y1="14.9868" x2="11.01" y2="9.31283" gradientUnits="userSpaceOnUse">
<stop stop-color="#75CEF3"/>
<stop offset="1" stop-color="#1C485D"/>
</linearGradient>
<linearGradient id="paint5_linear_179_85" x1="10.0766" y1="14.8307" x2="19.1967" y2="8.79519" gradientUnits="userSpaceOnUse">
<stop stop-color="#75CEF3"/>
<stop offset="1" stop-color="#1C485D"/>
</linearGradient>
<linearGradient id="paint6_linear_179_85" x1="14.3774" y1="8.53524" x2="12.5443" y2="4.17447" gradientUnits="userSpaceOnUse">
<stop stop-color="#75CEF3"/>
<stop offset="1" stop-color="#1C485D"/>
</linearGradient>
<linearGradient id="paint7_linear_179_85" x1="26.5796" y1="4.71206" x2="34.2304" y2="6.32461" gradientUnits="userSpaceOnUse">
<stop stop-color="#75CEF3"/>
<stop offset="1" stop-color="#1C485D"/>
</linearGradient>
<linearGradient id="paint8_linear_179_85" x1="32.196" y1="9.44988" x2="40.2983" y2="15.1979" gradientUnits="userSpaceOnUse">
<stop stop-color="#75CEF3"/>
<stop offset="1" stop-color="#1C485D"/>
</linearGradient>
<linearGradient id="paint9_linear_179_85" x1="31.8187" y1="10.2401" x2="26.5986" y2="14.9856" gradientUnits="userSpaceOnUse">
<stop stop-color="#75CEF3"/>
<stop offset="1" stop-color="#1C485D"/>
</linearGradient>
<linearGradient id="paint10_linear_179_85" x1="34.0935" y1="26.1237" x2="41.7116" y2="27.4425" gradientUnits="userSpaceOnUse">
<stop stop-color="#75CEF3"/>
<stop offset="1" stop-color="#1C485D"/>
</linearGradient>
<linearGradient id="paint11_linear_179_85" x1="30.1268" y1="30.8032" x2="38.1843" y2="30.8032" gradientUnits="userSpaceOnUse">
<stop stop-color="#75CEF3"/>
<stop offset="1" stop-color="#1C485D"/>
</linearGradient>
<linearGradient id="paint12_linear_179_85" x1="29.4884" y1="39.4916" x2="29.6931" y2="31.6127" gradientUnits="userSpaceOnUse">
<stop stop-color="#75CEF3"/>
<stop offset="1" stop-color="#1C485D"/>
</linearGradient>
<linearGradient id="paint13_linear_179_85" x1="26.5972" y1="26.4647" x2="33.8065" y2="26.4647" gradientUnits="userSpaceOnUse">
<stop stop-color="#75CEF3"/>
<stop offset="1" stop-color="#1C485D"/>
</linearGradient>
<radialGradient id="paint14_radial_179_85" cx="0" cy="0" r="1" gradientUnits="userSpaceOnUse" gradientTransform="translate(22.0001 20.1018) rotate(89.9286) scale(22.8116 24.8046)">
<stop stop-color="#FFFBD9"/>
<stop offset="1" stop-color="#FFD716"/>
</radialGradient>
</defs>
</svg>
